<?xml version="1.0" encoding="utf-8"?>
<!-- Generator: Adobe Illustrator 19.1.0, SVG Export Plug-In . SVG Version: 6.00 Build 0)  -->
<!DOCTYPE svg PUBLIC "-//W3C//DTD SVG 1.1//EN" "http://www.w3.org/Graphics/SVG/1.1/DTD/svg11.dtd">
<svg version="1.1" id="Layer_1" xmlns="http://www.w3.org/2000/svg" xmlns:xlink="http://www.w3.org/1999/xlink" x="0px" y="0px"
	 width="792px" height="612px" viewBox="0 0 792 612" style="enable-background:new 0 0 792 612;" xml:space="preserve">
<style type="text/css">
	.st0{fill:#F37677;}
	.st1{fill:none;stroke:#B71A1A;stroke-miterlimit:10;}
	.st2{fill:#B71A1A;}
	.st3{fill:#B72025;}
	.st4{fill:#B72126;}
</style>
<g>
	<path class="st0" d="M586.4,24.3c20-1.9,35.3,0.7,39,1.4c2.9,0.5,16.6,3.2,31.9,10.5c17.8,8.6,27.4,18.6,30,21.4
		c4.2,4.5,11.3,13.3,15,25.6c1.4,4.8,4,15.6,0.8,29.1c-5.4,22.7-23.5,36.8-27.2,39.6c-4.4,3.3-23.1,16.9-54.4,21.7
		c-21.8,3.3-40,0.8-50.1-1.1c-23.8-4.7-38.9-14.1-44.1-17.7c-13.8-9.3-20.6-19-23.3-23.1c-2.5-3.9-11.7-19.2-8.7-39.6
		c0.7-4.6,3.1-16.6,13.4-29.9C520,47.7,534.5,39.8,537.9,38C541.3,36.2,559.3,26.9,586.4,24.3z"/>
	<g>
		<path class="st1" d="M549.9,58.1h97c0,0,11.3-0.8,11.6,8.5s1.4,68.6,1.4,68.6s-1.8,9.8-13.1,10.3s-93.5,0-93.5,0s-13.1,1.3-13.8-7
			s0-72,0-72S540.7,58.1,549.9,58.1z"/>
		<ellipse class="st2" cx="599.1" cy="101.8" rx="24.2" ry="17.9"/>
		<path class="st3" d="M642.7,80.3h-13.6c-2.2,0-4.1-1.8-4.1-4.1v-7.1c0-2.2,1.8-4.1,4.1-4.1h13.6c2.2,0,4.1,1.8,4.1,4.1v7.1
			C646.7,78.5,644.9,80.3,642.7,80.3z"/>
		<g>
			<path class="st4" d="M634.9,94.8h11.2c0,0,0,32.2,0,37.7c0,5.4-5.6,4.8-5.6,4.8s-76.2,0-82.2,0c-6,0-6.1-4.5-6.1-4.5v-38l11,0.1
				c-0.8,3.3-1,6.1-0.9,8.2c0,3.3,0.1,6.3,1.9,9.9c1.7,3.3,4,5.5,5.3,6.8c0.9,0.8,4.5,4,10.7,6.8c2.1,0.9,6.1,2.7,12,3.6
				c8.3,1.3,15,0,17.3-0.5c7.1-1.5,11.6-4.3,14-5.8c2.2-1.4,6.1-3.9,9.1-8.2c0.4-0.6,2.5-3.7,3.5-8.1c0.6-3,0.4-5.5,0.2-7.9
				c-0.2-2-0.5-3.7-0.8-4.9"/>
		</g>
	</g>
</g>
</svg>
