<?xml version="1.0" encoding="utf-8"?>
<!-- Generator: Adobe Illustrator 19.1.0, SVG Export Plug-In . SVG Version: 6.00 Build 0)  -->
<!DOCTYPE svg PUBLIC "-//W3C//DTD SVG 1.1//EN" "http://www.w3.org/Graphics/SVG/1.1/DTD/svg11.dtd">
<svg version="1.1" id="Layer_1" xmlns="http://www.w3.org/2000/svg" xmlns:xlink="http://www.w3.org/1999/xlink" x="0px" y="0px"
	 width="792px" height="612px" viewBox="0 0 792 612" style="enable-background:new 0 0 792 612;" xml:space="preserve">
<style type="text/css">
	.st0{fill:#66C1A6;}
	.st1{fill:#218F79;}
</style>
<path class="st0" d="M90.7,24.2c15.2-1.8,26.8,0.7,29.7,1.3c2.2,0.5,12.6,2.9,24.3,9.7c13.5,7.9,20.8,17.1,22.8,19.6
	c3.2,4.2,8.6,12.2,11.4,23.5c1.1,4.4,3,14.3,0.6,26.7c-4.1,20.8-17.9,33.8-20.7,36.4c-3.3,3.1-17.6,15.5-41.3,19.9
	c-16.6,3-30.4,0.8-38-1c-18.1-4.3-29.6-13-33.5-16.2c-10.5-8.5-15.7-17.4-17.7-21.2c-1.9-3.6-8.9-17.6-6.6-36.4
	c0.3-4.2,2.1-15.3,10-27.5c8.6-13.3,19.6-20.6,22.2-22.2C56.4,35.1,70.1,26.6,90.7,24.2z"/>
<path class="st1" d="M62.9,55.3h73.8c0,0,8.6-0.7,8.9,7.8s1.1,63,1.1,63s-1.3,9-9.9,9.5c-8.6,0.5-71.1,0-71.1,0s-9.9,1.2-10.5-6.4
	c-0.5-7.6,0-66.1,0-66.1S55.9,55.3,62.9,55.3z"/>
<ellipse class="st0" cx="100.3" cy="95.4" rx="18.4" ry="16.5"/>
<path class="st0" d="M132.5,75.7h-8.4c-2.2,0-4.1-1.8-4.1-4.1v-5.9c0-2.2,1.8-4.1,4.1-4.1h8.4c2.2,0,4.1,1.8,4.1,4.1v5.9
	C136.6,73.8,134.7,75.7,132.5,75.7z"/>
<g>
	<path class="st0" d="M127.5,89h8.5c0,0,0,29.6,0,34.6c0,5-4.2,4.4-4.2,4.4s-57.9,0-62.5,0s-4.7-4.2-4.7-4.2V89l8.4,0.1
		c-0.6,3-0.7,5.6-0.7,7.5c0,3,0.1,5.8,1.4,9.1c1.3,3.1,3,5.1,4.1,6.2c0.7,0.8,3.4,3.7,8.1,6.2c1.6,0.9,4.7,2.5,9.1,3.3
		c6.3,1.2,11.4,0,13.2-0.4c5.4-1.4,8.9-3.9,10.6-5.3c1.6-1.2,4.6-3.6,6.9-7.5c0.3-0.6,1.9-3.4,2.6-7.4c0.5-2.8,0.3-5.1,0.1-7.3
		c-0.1-1.9-0.4-3.4-0.6-4.5"/>
</g>
<image style="overflow:visible;" width="180" height="610" xlink:href="../../../../../../Desktop/Screen Shot 2015-11-05 at 12.45.38 PM.png"  transform="matrix(0.5 0 0 0.5 351 -463.4966)">
</image>
</svg>
