<?xml version="1.0" encoding="utf-8"?>
<!-- Generator: Adobe Illustrator 19.1.0, SVG Export Plug-In . SVG Version: 6.00 Build 0)  -->
<!DOCTYPE svg PUBLIC "-//W3C//DTD SVG 1.1//EN" "http://www.w3.org/Graphics/SVG/1.1/DTD/svg11.dtd">
<svg version="1.1" id="Layer_1" xmlns="http://www.w3.org/2000/svg" xmlns:xlink="http://www.w3.org/1999/xlink" x="0px" y="0px"
	 width="792px" height="612px" viewBox="90 91 792 612" style="enable-background:new 90 91 792 612;" xml:space="preserve">
<style type="text/css">
	.st0{fill:#E8E883;}
	.st1{fill:#218F79;}
</style>
<g>
	<path class="st0" d="M446.1,133.6c59.2-6.9,104.4,2.7,115.7,5c8.6,1.9,49.1,11.1,94.7,37c52.6,30.2,81,65.3,88.8,74.9
		c12.5,16,33.5,46.6,44.4,89.7c4.3,16.8,11.7,54.6,2.3,102c-16,79.4-69.7,129.1-80.6,139c-12.9,11.8-68.6,59.2-160.9,76
		c-64.7,11.5-118.4,3.1-148-3.8c-70.5-16.4-115.3-49.6-130.5-61.9c-40.9-32.5-61.2-66.5-69-81c-7.4-13.7-34.7-67.2-25.7-139
		c1.2-16,8.2-58.4,39-105c33.5-50.8,76.4-78.7,86.5-84.8C312.4,175.2,365.8,142.8,446.1,133.6z"/>
	<path class="st1" d="M337.8,252.4h287.5c0,0,33.5-2.7,34.7,29.8s4.3,240.6,4.3,240.6s-5.1,34.4-38.6,36.3c-33.5,1.9-277,0-277,0
		s-38.6,4.6-40.9-24.4c-1.9-29,0-252.4,0-252.4S310.5,252.4,337.8,252.4z"/>
	<ellipse class="st0" cx="483.5" cy="405.5" rx="71.7" ry="63"/>
	<path class="st0" d="M608.9,330.3h-32.7c-8.6,0-16-6.9-16-15.7v-22.5c0-8.4,7-15.7,16-15.7h32.7c8.6,0,16,6.9,16,15.7v22.5
		C624.9,323,617.5,330.3,608.9,330.3z"/>
	<g>
		<path class="st0" d="M589.4,381.1h33.1c0,0,0,113,0,132.1S606.2,530,606.2,530s-225.6,0-243.5,0c-17.9,0-18.3-16-18.3-16V381.1
			l32.7,0.4c-2.3,11.5-2.7,21.4-2.7,28.6c0,11.5,0.4,22.2,5.5,34.8c5.1,11.8,11.7,19.5,16,23.7c2.7,3.1,13.2,14.1,31.6,23.7
			c6.2,3.4,18.3,9.5,35.5,12.6c24.5,4.6,44.4,0,51.4-1.5c21-5.3,34.7-14.9,41.3-20.2c6.2-4.6,17.9-13.7,26.9-28.6
			c1.2-2.3,7.4-13,10.1-28.3c1.9-10.7,1.2-19.5,0.4-27.9c-0.4-7.3-1.6-13-2.3-17.2"/>
	</g>
</g>
<image style="overflow:visible;enable-background:new    ;" width="180" height="610" xlink:href="../../../../../../Desktop/Screen Shot 2015-11-05 at 12.45.38 PM.png"  transform="matrix(0.5 0 0 0.5 441 -372.4966)">
</image>
</svg>
