<svg xmlns="http://www.w3.org/2000/svg" xmlns:xlink="http://www.w3.org/1999/xlink" width="792" height="612" viewBox="90 91 792 612" enable-background="new 90 91 792 612"><style type="text/css">.st0{fill:#66C1A6;} .st1{fill:#218F79;}</style><path class="st0" d="M180.7 115.2c15.2-1.8 26.8.7 29.7 1.3 2.2.5 12.6 2.9 24.3 9.7 13.5 7.9 20.8 17.1 22.8 19.6 3.2 4.2 8.6 12.2 11.4 23.5 1.1 4.4 3 14.3.6 26.7-4.1 20.8-17.9 33.8-20.7 36.4-3.3 3.1-17.6 15.5-41.3 19.9-16.6 3-30.4.8-38-1-18.1-4.3-29.6-13-33.5-16.2-10.5-8.5-15.7-17.4-17.7-21.2-1.9-3.6-8.9-17.6-6.6-36.4.3-4.2 2.1-15.3 10-27.5 8.6-13.3 19.6-20.6 22.2-22.2 2.5-1.7 16.2-10.2 36.8-12.6z"/><path class="st1" d="M152.9 146.3h73.8s8.6-.7 8.9 7.8l1.1 63s-1.3 9-9.9 9.5h-71.1s-9.9 1.2-10.5-6.4c-.5-7.6 0-66.1 0-66.1s.7-7.8 7.7-7.8z"/><ellipse class="st0" cx="190.3" cy="186.4" rx="18.4" ry="16.5"/><path class="st0" d="M222.5 166.7h-8.4c-2.2 0-4.1-1.8-4.1-4.1v-5.9c0-2.2 1.8-4.1 4.1-4.1h8.4c2.2 0 4.1 1.8 4.1 4.1v5.9c0 2.2-1.9 4.1-4.1 4.1zm-5 13.3h8.5v34.6l-4.2 4.4h-62.5l-4.7-4.2v-34.8l8.4.1c-.6 3-.7 5.6-.7 7.5 0 3 .1 5.8 1.4 9.1 1.3 3.1 3 5.1 4.1 6.2.7.8 3.4 3.7 8.1 6.2 1.6.9 4.7 2.5 9.1 3.3 6.3 1.2 11.4 0 13.2-.4 5.4-1.4 8.9-3.9 10.6-5.3 1.6-1.2 4.6-3.6 6.9-7.5.3-.6 1.9-3.4 2.6-7.4.5-2.8.3-5.1.1-7.3-.1-1.9-.4-3.4-.6-4.5"/><image width="180" height="610" xlink:href="../../../../../../Desktop/Screen Shot 2015-11-05 at 12.45.38 PM.png" transform="matrix(.5 0 0 .5 441 -372.497)" overflow="visible" enable-background="new"/></svg>