<svg xmlns="http://www.w3.org/2000/svg" xmlns:xlink="http://www.w3.org/1999/xlink" width="792" height="612" viewBox="90 91 792 612" enable-background="new 90 91 792 612"><style type="text/css">.st0{fill:#E8E883;} .st1{fill:#218F79;}</style><path class="st0" d="M446.1 133.6c59.2-6.9 104.4 2.7 115.7 5 8.6 1.9 49.1 11.1 94.7 37 52.6 30.2 81 65.3 88.8 74.9 12.5 16 33.5 46.6 44.4 89.7 4.3 16.8 11.7 54.6 2.3 102-16 79.4-69.7 129.1-80.6 139-12.9 11.8-68.6 59.2-160.9 76-64.7 11.5-118.4 3.1-148-3.8-70.5-16.4-115.3-49.6-130.5-61.9-40.9-32.5-61.2-66.5-69-81-7.4-13.7-34.7-67.2-25.7-139 1.2-16 8.2-58.4 39-105 33.5-50.8 76.4-78.7 86.5-84.8 9.6-6.5 63-38.9 143.3-48.1z"/><path class="st1" d="M337.8 252.4h287.5s33.5-2.7 34.7 29.8l4.3 240.6s-5.1 34.4-38.6 36.3c-33.5 1.9-277 0-277 0s-38.6 4.6-40.9-24.4c-1.9-29 0-252.4 0-252.4s2.7-29.9 30-29.9z"/><ellipse class="st0" cx="483.5" cy="405.5" rx="71.7" ry="63"/><path class="st0" d="M608.9 330.3h-32.7c-8.6 0-16-6.9-16-15.7v-22.5c0-8.4 7-15.7 16-15.7h32.7c8.6 0 16 6.9 16 15.7v22.5c0 8.4-7.4 15.7-16 15.7zm-19.5 50.8h33.1v132.1l-16.3 16.8h-243.5c-17.9 0-18.3-16-18.3-16v-132.9l32.7.4c-2.3 11.5-2.7 21.4-2.7 28.6 0 11.5.4 22.2 5.5 34.8 5.1 11.8 11.7 19.5 16 23.7 2.7 3.1 13.2 14.1 31.6 23.7 6.2 3.4 18.3 9.5 35.5 12.6 24.5 4.6 44.4 0 51.4-1.5 21-5.3 34.7-14.9 41.3-20.2 6.2-4.6 17.9-13.7 26.9-28.6 1.2-2.3 7.4-13 10.1-28.3 1.9-10.7 1.2-19.5.4-27.9-.4-7.3-1.6-13-2.3-17.2"/><image width="180" height="610" xlink:href="../../../../../../Desktop/Screen Shot 2015-11-05 at 12.45.38 PM.png" transform="matrix(.5 0 0 .5 441 -372.497)" overflow="visible" enable-background="new"/></svg>