<svg xmlns="http://www.w3.org/2000/svg" width="792" height="612" viewBox="90 91 792 612" enable-background="new 90 91 792 612"><style type="text/css">.st0{fill:#E8E883;} .st1{fill:#218F79;}</style><path class="st0" d="M450.2 139.9c61.3-6.8 108.1 2.7 119.8 4.9 8.9 1.9 50.8 11 98 36.9 54.4 30.1 83.9 65 92 74.6 12.9 16 34.7 46.4 46 89.4 4.4 16.7 12.1 54.4 2.4 101.6-16.5 79.1-72.2 128.6-83.5 138.5-13.3 11.8-71 59-166.6 75.7-67 11.4-122.6 3-153.3-3.8-73-16.4-119.4-49.5-135.1-61.6-42.3-32.3-63.3-66.2-71.4-80.6-7.7-13.7-35.9-66.9-26.6-138.5 2-16 9.3-58.2 41.1-104.6 34.7-50.6 79.1-78.4 89.5-84.4 9.7-6.7 64.6-39 147.7-48.1z"/><path class="st1" d="M296.1 327.8h82.3v222.9h-82.3z"/><ellipse class="st1" cx="337.3" cy="255.9" rx="49.2" ry="41.5"/><path class="st1" d="M686.1 402.3c.8 9.9.4 17.1.4 19v129h-84.7v-130.1c0-2.3-.8-9.1-4.4-16-1.6-2.7-5.6-11-15.7-16.4-18.6-10.3-40.7-3.4-43.6-2.3-3.6 1.1-13.3 4.6-21 12.9-8.5 9.5-9.3 20.9-9.7 25.5v127.1h-85.1v-224h82.3c-1.2 14.1-2 28.5.8 28.9 1.2.4 2.8-2.7 4.8-5.7 6.9-9.5 16.9-14.5 26.6-19 17.3-8.4 33.5-9.5 42.8-9.9 19-1.1 33.9 1.9 41.1 3.8 8.1 1.9 19 4.6 30.2 12.2 14.5 9.5 21 20.9 24.6 27 0 0 8.1 14.5 9.7 32.3.5.8.5 3.1.9 5.7z"/></svg>