<svg xmlns="http://www.w3.org/2000/svg" width="792" height="612" viewBox="90 91 792 612" enable-background="new 90 91 792 612"><style type="text/css">.st0{fill:#66C1A6;} .st1{fill:#218F79;}</style><path class="st0" d="M194.5 68.5c15.2-1.8 26.8.7 29.7 1.3 2.2.5 12.6 2.9 24.3 9.7 13.5 7.9 20.8 17.1 22.8 19.6 3.2 4.2 8.6 12.2 11.4 23.5 1.1 4.4 3 14.3.6 26.7-4.1 20.8-17.9 33.8-20.7 36.4-3.3 3.1-17.6 15.5-41.3 19.9-16.6 3-30.4.8-38-1-18.1-4.3-29.6-13-33.5-16.2-10.5-8.5-15.7-17.4-17.7-21.2-1.9-3.6-8.9-17.6-6.6-36.4.5-4.2 2.3-15.3 10.2-27.5 8.6-13.3 19.6-20.6 22.2-22.2 2.4-1.7 16-10.2 36.6-12.6z"/><path class="st1" d="M156.3 117.9h20.4v58.6h-20.4z"/><ellipse class="st1" cx="166.5" cy="99" rx="12.2" ry="10.9"/><path class="st1" d="M253 137.5c.2 2.6.1 4.5.1 5v33.9h-21v-34.2c0-.6-.2-2.4-1.1-4.2-.4-.7-1.4-2.9-3.9-4.3-4.6-2.7-10.1-.9-10.8-.6-.9.3-3.3 1.2-5.2 3.4-2.1 2.5-2.3 5.5-2.4 6.7v33.4h-21.1v-58.9h20.4c-.3 3.7-.5 7.5.2 7.6.3.1.7-.7 1.2-1.5 1.7-2.5 4.2-3.8 6.6-5 4.3-2.2 8.3-2.5 10.6-2.6 4.7-.3 8.4.5 10.2 1 2 .5 4.7 1.2 7.5 3.2 3.6 2.5 5.2 5.5 6.1 7.1 0 0 2 3.8 2.4 8.5.1.2.1.8.2 1.5z"/></svg>