<?xml version="1.0" encoding="utf-8"?>
<!-- Generator: Adobe Illustrator 19.1.0, SVG Export Plug-In . SVG Version: 6.00 Build 0)  -->
<!DOCTYPE svg PUBLIC "-//W3C//DTD SVG 1.1//EN" "http://www.w3.org/Graphics/SVG/1.1/DTD/svg11.dtd">
<svg version="1.1" id="Layer_1" xmlns="http://www.w3.org/2000/svg" xmlns:xlink="http://www.w3.org/1999/xlink" x="0px" y="0px"
	 width="792px" height="612px" viewBox="90 91 792 612" style="enable-background:new 90 91 792 612;" xml:space="preserve">
<style type="text/css">
	.st0{fill:#E8E883;}
	.st1{fill:#218F79;}
</style>
<g>
	<g>
		<path class="st0" d="M450.2,139.9c61.3-6.8,108.1,2.7,119.8,4.9c8.9,1.9,50.8,11,98,36.9c54.4,30.1,83.9,65,92,74.6
			c12.9,16,34.7,46.4,46,89.4c4.4,16.7,12.1,54.4,2.4,101.6c-16.5,79.1-72.2,128.6-83.5,138.5c-13.3,11.8-71,59-166.6,75.7
			c-67,11.4-122.6,3-153.3-3.8c-73-16.4-119.4-49.5-135.1-61.6c-42.3-32.3-63.3-66.2-71.4-80.6c-7.7-13.7-35.9-66.9-26.6-138.5
			c2-16,9.3-58.2,41.1-104.6c34.7-50.6,79.1-78.4,89.5-84.4C312.2,181.3,367.1,149,450.2,139.9z"/>
	</g>
	<rect x="296.1" y="327.8" class="st1" width="82.3" height="222.9"/>
	<ellipse class="st1" cx="337.3" cy="255.9" rx="49.2" ry="41.5"/>
	<path class="st1" d="M686.1,402.3c0.8,9.9,0.4,17.1,0.4,19c0,9.1,0,59.3,0,129h-84.7V425.9c0-1.5,0-3.4,0-5.7c0-2.3-0.8-9.1-4.4-16
		c-1.6-2.7-5.6-11-15.7-16.4c-18.6-10.3-40.7-3.4-43.6-2.3c-3.6,1.1-13.3,4.6-21,12.9c-8.5,9.5-9.3,20.9-9.7,25.5c0,1.1,0,2.3,0,2.7
		c0,12.2,0,70.8,0,124.4h-85.1V327h82.3c-1.2,14.1-2,28.5,0.8,28.9c1.2,0.4,2.8-2.7,4.8-5.7c6.9-9.5,16.9-14.5,26.6-19
		c17.3-8.4,33.5-9.5,42.8-9.9c19-1.1,33.9,1.9,41.1,3.8c8.1,1.9,19,4.6,30.2,12.2c14.5,9.5,21,20.9,24.6,27c0,0,8.1,14.5,9.7,32.3
		C685.7,397.4,685.7,399.7,686.1,402.3z"/>
</g>
</svg>
