<?xml version="1.0" encoding="utf-8"?>
<!-- Generator: Adobe Illustrator 19.1.0, SVG Export Plug-In . SVG Version: 6.00 Build 0)  -->
<!DOCTYPE svg PUBLIC "-//W3C//DTD SVG 1.1//EN" "http://www.w3.org/Graphics/SVG/1.1/DTD/svg11.dtd">
<svg version="1.1" id="Layer_1" xmlns="http://www.w3.org/2000/svg" xmlns:xlink="http://www.w3.org/1999/xlink" x="0px" y="0px"
	 width="792px" height="612px" viewBox="0 0 792 612" style="enable-background:new 0 0 792 612;" xml:space="preserve">
<style type="text/css">
	.st0{fill:#4A52A3;}
	.st1{fill:#FFFFFF;}
</style>
<g>
	<path class="st0" d="M105.5,63.5c15.2-1.8,26.8,0.7,29.7,1.3c2.2,0.5,12.6,2.9,24.3,9.7c13.5,7.9,20.8,17.1,22.8,19.6
		c3.2,4.2,8.6,12.2,11.4,23.5c1.1,4.4,3,14.3,0.6,26.7c-4.1,20.8-17.9,33.8-20.7,36.4c-3.3,3.1-17.6,15.5-41.3,19.9
		c-16.6,3-30.4,0.8-38-1c-18.1-4.3-29.6-13-33.5-16.2c-10.5-8.5-15.7-17.4-17.7-21.2c-1.9-3.6-8.9-17.6-6.6-36.4
		c0.5-4.2,2.3-15.3,10.2-27.5C55.1,85,66.1,77.7,68.7,76.1C71.3,74.4,84.9,65.9,105.5,63.5z"/>
	<rect x="67.3" y="112.9" class="st1" width="20.4" height="58.6"/>
	<ellipse class="st1" cx="77.5" cy="94.1" rx="12.2" ry="10.9"/>
	<path class="st1" d="M164,132.5c0.2,2.6,0.1,4.5,0.1,5c0,2.4,0,15.6,0,33.9h-21l0-32.7c0-0.4,0-0.9,0-1.5c0-0.6-0.2-2.4-1.1-4.2
		c-0.4-0.7-1.4-2.9-3.9-4.3c-4.6-2.7-10.1-0.9-10.8-0.6c-0.9,0.3-3.3,1.2-5.2,3.4c-2.1,2.5-2.3,5.5-2.4,6.7c0,0.3,0,0.6,0,0.7
		c0,3.2,0,18.6,0,32.7H98.6v-58.7h20.4c-0.3,3.7-0.5,7.5,0.2,7.6c0.3,0.1,0.7-0.7,1.2-1.5c1.7-2.5,4.2-3.8,6.6-5
		c4.3-2.2,8.3-2.5,10.6-2.6c4.7-0.3,8.4,0.5,10.2,1c2,0.5,4.7,1.2,7.5,3.2c3.6,2.5,5.2,5.5,6.1,7.1c0,0,2,3.8,2.4,8.5
		C163.9,131.3,163.9,131.9,164,132.5z"/>
</g>
</svg>
