<svg xmlns="http://www.w3.org/2000/svg" width="792" height="612" viewBox="90 91 792 612" enable-background="new 90 91 792 612"><style type="text/css">.st0{fill:#64BFA4;} .st1{fill:#FFFFFF;} .st2{fill:none;stroke:#FFFFFF;stroke-width:6;stroke-miterlimit:10;}</style><path class="st0" d="M122.9 122.4l2.4 105.6s.8 27.7 25.7 27.9c24.9.2 110.5 0 110.5 0s16.1-2.4 17.1-33.4c1-31.1 0-97.6 0-97.6s-5.2-23.6-27.2-24.3c-22-.8-106.8 0-106.8 0s-22.1.8-21.7 21.8z"/><path class="st1" d="M134.9 166s-1.5-9.5 0-15.3c1.5-5.8 4.3-10.9 6.8-13.5 2.4-2.6 5.8-5.3 9.7-6.9 3.9-1.5 7.4-2.7 7.4-2.7l9.7 13.7 4-2.4 2.9 4.1-4 2.6s2.4 4 3.5 5.1c1 1.1 2.1 2 2.1 2s-3.3.4-5.5 2.8c-2.3 2.4-3.3 3.6-3.8 5.7l-.6 4.8h-13.1l.1-5-5.2.3v4.7h-14zm1.1 20.5s0 7.4 2.1 13.1c2.1 5.7 3.5 8.7 5.8 11.7s4.4 6.3 7.8 8.9c3.3 2.7 8.1 5.1 8.1 5.1l6.9-9.9-3.2-2.4 3.9-5.1 3 2.2 6.6-8.8s-5.6-3.7-7.3-5.6c-1.6-1.9-2.9-6-3.2-7.6-.3-1.5-.3-4.5-.3-4.5l-9.8 1.2-.9-4.7-5.5.6.5 5-14.5.8zm38.3 50.4l7.8-10.5-3.2-2.8 3.2-4.5 3.9 2.2 5.8-8.5s4.7 2 8.4 2.4c3.7.4 12-1.8 12-1.8l4.6 7.7-3.8 2.8 2.1 4 3.9-2.7s2.1 3.5 2.8 5.6c.7 2.1 1.4 4.7 1.4 4.7s-5.8 5.6-11 6.6-12 1.1-17.6.6c-5.6-.6-10.9-1.3-13.8-2.1-3-.7-6.5-3.7-6.5-3.7zm51.4-34.1s6.1-6 7-8.6 1.4-5.2 1.4-7.1v-2.9l9.1 1.5-.5 4.1 4.5.6.6-4.2s7.5 2.6 10 2.9c2.5.3 5.2.1 5.2.1s-.1 6.1-2.5 11.6-4.9 9.7-8 13.8c-3.1 4-12 13.7-12 13.7s-.5-4.2-1.6-6.9c-1.3-2.7-2.8-4.7-2.8-4.7l-2.3 2-3.1-4.5 2-2.2-7-9.2zm1.2-58s3 2 4.5 8l2.1 13.5 10.4-2.4 1 4.8 5.8-.8v-5s5.4.3 7.5.8c2.1.4 3.5 1.7 3.5 1.7s1.5-9.9.6-16-2.2-10.7-4.9-15.4c-2.8-4.7-6.8-9.5-6.8-9.5l-8.1 11.6 2.2 5-5.5 3.8-3.3-4.6-9 4.5zm-49.5-29l6.4 11.3 5.6-2.9 3.6 6.7-4.1 3.5 4.9 7.6s5.3-2.6 8.4-2.9c3.1-.4 5-.9 8.2-.1 3.3.8 6.2 1.5 6.2 1.5l2.4-8.6 4.7.8 1-6.8-4.9-.6s.8-3.6 2.1-5.8c1.3-2.2 3.5-4.9 3.5-4.9s-7.5-5.2-14.8-5.5-15.7.8-20.5 2.4c-4.8 1.4-12.7 4.3-12.7 4.3z"/><ellipse class="st1" cx="178.2" cy="139.4" rx="6.5" ry="5.9"/><ellipse class="st1" cx="204.1" cy="146.8" rx="4.1" ry="3.5"/><ellipse class="st1" cx="203.4" cy="206.2" rx="4.1" ry="3.5"/><ellipse class="st1" cx="232.6" cy="176.5" rx="4.1" ry="3.5"/><ellipse class="st1" cx="168.6" cy="174.6" rx="4.1" ry="3.5"/><ellipse class="st0" cx="194.9" cy="125.5" rx="6.5" ry="5.9"/><ellipse class="st1" cx="228.4" cy="130.1" rx="6.5" ry="5.9"/><ellipse class="st1" cx="177.4" cy="218.9" rx="6.5" ry="5.9"/><ellipse class="st0" cx="210.5" cy="228.1" rx="6.5" ry="5.9"/><ellipse class="st1" cx="228.5" cy="218.9" rx="6.5" ry="5.9"/><ellipse class="st0" cx="244.4" cy="194.3" rx="6.5" ry="5.9"/><ellipse class="st1" cx="247.9" cy="171.6" rx="6.5" ry="5.9"/><ellipse class="st0" cx="244.4" cy="145.2" rx="6.5" ry="5.9"/><ellipse class="st0" cx="151.2" cy="157.5" rx="6.5" ry="5.9"/><ellipse class="st1" cx="152.8" cy="177.5" rx="6.5" ry="5.9"/><ellipse class="st0" cx="162.1" cy="208.5" rx="6.5" ry="5.9"/><path class="st1" d="M181.7 173.6l5.3-5 15.7 16.2-4.7 5.1z"/><path class="st2" d="M187.7 194.9l39.2-36.3"/></svg>