<?xml version="1.0" encoding="utf-8"?>
<!-- Generator: Adobe Illustrator 19.1.0, SVG Export Plug-In . SVG Version: 6.00 Build 0)  -->
<!DOCTYPE svg PUBLIC "-//W3C//DTD SVG 1.1//EN" "http://www.w3.org/Graphics/SVG/1.1/DTD/svg11.dtd">
<svg version="1.1" id="Layer_1" xmlns="http://www.w3.org/2000/svg" xmlns:xlink="http://www.w3.org/1999/xlink" x="0px" y="0px"
	 width="612px" height="792px" viewBox="0 0 612 792" style="enable-background:new 0 0 612 792;" xml:space="preserve">
<style type="text/css">
	.st0{fill:#66BFA4;}
	.st1{fill:#FFFFFF;}
	.st2{fill:none;stroke:#FFFFFF;stroke-miterlimit:10;}
</style>
<g>
	<path class="st0" d="M14.7,20.3c0,0,0.1-6,6.7-6.7s55.4,0,55.4,0s5-0.4,5.3,8C82.4,30,81.4,61,81.4,61s-0.3,6-7.2,6.7
		c-6.9,0.7-51.5,1-51.5,1s-6.7-1.6-7-10.3C15.3,49.8,14.7,20.3,14.7,20.3z"/>
	<path class="st1" d="M23.5,37.2c0,0-0.6-3.3,0-5.3c0.6-2,1.7-3.8,2.6-4.7s2.2-1.8,3.7-2.4s2.8-0.9,2.8-0.9l3.7,4.7l1.5-0.8l1.1,1.4
		l-1.5,0.9c0,0,0.9,1.4,1.3,1.8c0.4,0.4,0.8,0.7,0.8,0.7s-1.3,0.2-2.1,0.9c-0.9,0.8-1.3,1.2-1.5,2c-0.2,0.7-0.2,1.7-0.2,1.7h-5
		l0-1.7l-2,0.1v1.6H23.5z"/>
	<path class="st1" d="M23.9,44.3c0,0,0,2.5,0.8,4.5s1.3,3,2.2,4c0.9,1.1,1.7,2.2,3,3.1c1.3,0.9,3.1,1.8,3.1,1.8l2.6-3.4l-1.2-0.8
		l1.5-1.8l1.1,0.8l2.5-3.1c0,0-2.2-1.3-2.8-1.9c-0.6-0.6-1.1-2.1-1.2-2.6c-0.1-0.5-0.1-1.6-0.1-1.6l-3.7,0.4L31.4,42l-2.1,0.2
		l0.2,1.7L23.9,44.3z"/>
	<path class="st1" d="M38.6,61.7l3-3.6l-1.2-0.9l1.2-1.6l1.5,0.8l2.2-2.9c0,0,1.8,0.7,3.2,0.8c1.4,0.1,4.6-0.6,4.6-0.6l1.8,2.6
		l-1.5,0.9l0.8,1.4l1.5-0.9c0,0,0.8,1.2,1.1,1.9c0.3,0.7,0.5,1.6,0.5,1.6s-2.2,1.9-4.2,2.3c-2,0.3-4.6,0.4-6.8,0.2
		c-2.2-0.2-4.2-0.5-5.3-0.7C40,62.8,38.6,61.7,38.6,61.7z"/>
	<path class="st1" d="M58.3,49.9c0,0,2.3-2.1,2.7-3c0.4-0.9,0.5-1.8,0.5-2.5s0-1,0-1L65,44l-0.2,1.4l1.7,0.2l0.2-1.5
		c0,0,2.9,0.9,3.9,1c1,0.1,2,0,2,0s0,2.1-1,4c-0.9,1.9-1.9,3.4-3.1,4.8s-4.6,4.7-4.6,4.7s-0.2-1.5-0.6-2.4c-0.5-0.9-1.1-1.6-1.1-1.6
		l-0.9,0.7l-1.2-1.6l0.7-0.8L58.3,49.9z"/>
	<path class="st1" d="M58.8,29.8c0,0,1.1,0.7,1.7,2.8s0.8,4.7,0.8,4.7l4-0.8l0.4,1.7l2.2-0.3v-1.7c0,0,2.1,0.1,2.9,0.3
		c0.8,0.2,1.3,0.6,1.3,0.6s0.6-3.4,0.2-5.6c-0.4-2.1-0.8-3.7-1.9-5.3c-1.1-1.6-2.6-3.3-2.6-3.3l-3.1,4l0.8,1.7l-2.1,1.3l-1.3-1.6
		L58.8,29.8z"/>
	<path class="st1" d="M39.8,19.8l2.4,3.9l2.2-1l1.4,2.3l-1.6,1.2l1.9,2.6c0,0,2.1-0.9,3.2-1c1.2-0.2,1.9-0.3,3.2,0s2.4,0.5,2.4,0.5
		l0.9-3l1.8,0.3l0.4-2.3l-1.9-0.2c0,0,0.3-1.2,0.8-2c0.5-0.8,1.3-1.7,1.3-1.7s-2.9-1.8-5.7-1.9s-6,0.3-7.9,0.8
		C42.8,18.8,39.8,19.8,39.8,19.8z"/>
	<ellipse class="st1" cx="40.1" cy="28" rx="2.5" ry="2"/>
	<ellipse class="st1" cx="50" cy="30.5" rx="1.6" ry="1.2"/>
	<ellipse class="st1" cx="49.8" cy="51.1" rx="1.6" ry="1.2"/>
	<ellipse class="st1" cx="61" cy="40.8" rx="1.6" ry="1.2"/>
	<ellipse class="st1" cx="36.4" cy="40.2" rx="1.6" ry="1.2"/>
	<ellipse class="st0" cx="46.5" cy="23.2" rx="2.5" ry="2"/>
	<ellipse class="st1" cx="59.4" cy="24.8" rx="2.5" ry="2"/>
	<ellipse class="st1" cx="39.8" cy="55.5" rx="2.5" ry="2"/>
	<ellipse class="st0" cx="52.5" cy="58.7" rx="2.5" ry="2"/>
	<ellipse class="st1" cx="59.4" cy="55.5" rx="2.5" ry="2"/>
	<ellipse class="st0" cx="65.5" cy="47" rx="2.5" ry="2"/>
	<ellipse class="st1" cx="66.8" cy="39.1" rx="2.5" ry="2"/>
	<ellipse class="st0" cx="65.5" cy="30" rx="2.5" ry="2"/>
	<ellipse class="st0" cx="29.8" cy="34.2" rx="2.5" ry="2"/>
	<ellipse class="st1" cx="30.4" cy="41.1" rx="2.5" ry="2"/>
	<ellipse class="st0" cx="33.9" cy="51.9" rx="2.5" ry="2"/>
	<polygon class="st1" points="41.5,39.8 43.5,38.1 49.5,43.7 47.7,45.5 	"/>
	<line class="st2" x1="43.7" y1="47.2" x2="58.8" y2="34.6"/>
</g>
</svg>
