<?xml version="1.0" encoding="utf-8"?>
<!-- Generator: Adobe Illustrator 19.1.0, SVG Export Plug-In . SVG Version: 6.00 Build 0)  -->
<!DOCTYPE svg PUBLIC "-//W3C//DTD SVG 1.1//EN" "http://www.w3.org/Graphics/SVG/1.1/DTD/svg11.dtd">
<svg version="1.1" id="Layer_1" xmlns="http://www.w3.org/2000/svg" xmlns:xlink="http://www.w3.org/1999/xlink" x="0px" y="0px"
	 width="792px" height="612px" viewBox="0 0 792 612" style="enable-background:new 0 0 792 612;" xml:space="preserve">
<style type="text/css">
	.st0{fill:#64BFA4;}
	.st1{fill:#FFFFFF;}
	.st2{fill:none;stroke:#FFFFFF;stroke-width:6;stroke-miterlimit:10;}
</style>
<g>
	<path class="st0" d="M27.9,37.2l2.6,107.4c0,0,0.9,28.2,28.4,28.4c27.5,0.2,122.1,0,122.1,0s17.8-2.4,18.9-34s0-99.3,0-99.3
		s-5.8-24-30.1-24.7c-24.3-0.8-118,0-118,0S27.4,15.8,27.9,37.2z"/>
	<g>
		<path class="st1" d="M41.2,81.5c0,0-1.7-9.7,0-15.6c1.7-5.9,4.8-11.1,7.5-13.7c2.7-2.6,6.4-5.4,10.7-7c4.3-1.5,8.2-2.7,8.2-2.7
			l10.7,13.9l4.4-2.4l3.2,4.2l-4.4,2.6c0,0,2.7,4.1,3.9,5.2c1.1,1.1,2.3,2,2.3,2s-3.7,0.4-6.1,2.8c-2.5,2.4-3.7,3.7-4.2,5.8
			c-0.5,2.1-0.7,4.9-0.7,4.9H62.2l0.1-5.1l-5.8,0.3v4.8L41.2,81.5L41.2,81.5z"/>
		<path class="st1" d="M42.4,102.4c0,0,0,7.5,2.3,13.3c2.3,5.8,3.9,8.8,6.4,11.9c2.5,3.1,4.9,6.4,8.6,9.1c3.7,2.7,9,5.2,9,5.2
			l7.6-10.1l-3.5-2.4l4.3-5.2l3.3,2.2l7.3-9c0,0-6.2-3.8-8.1-5.7c-1.8-1.9-3.2-6.1-3.5-7.7c-0.3-1.5-0.3-4.6-0.3-4.6L65,100.6
			l-1-4.8l-6.1,0.6l0.5,5.1L42.4,102.4z"/>
		<path class="st1" d="M84.7,153.7l8.6-10.7l-3.5-2.8l3.5-4.6l4.3,2.2l6.4-8.6c0,0,5.2,2,9.3,2.4c4.1,0.4,13.3-1.8,13.3-1.8l5.1,7.8
			l-4.2,2.8l2.3,4.1l4.3-2.7c0,0,2.3,3.6,3.1,5.7s1.5,4.8,1.5,4.8s-6.4,5.7-12.2,6.7c-5.8,1-13.3,1.1-19.5,0.6
			c-6.2-0.6-12-1.3-15.2-2.1C88.6,156.7,84.7,153.7,84.7,153.7z"/>
		<path class="st1" d="M141.5,119c0,0,6.7-6.1,7.7-8.7c1-2.6,1.5-5.3,1.5-7.2c0-1.9,0-3,0-3l10.1,1.5l-0.5,4.2l5,0.6l0.7-4.3
			c0,0,8.3,2.6,11.1,2.9s5.8,0.1,5.8,0.1s-0.1,6.2-2.8,11.8c-2.7,5.6-5.4,9.9-8.8,14c-3.4,4.1-13.3,13.9-13.3,13.9s-0.5-4.3-1.8-7
			c-1.4-2.7-3.1-4.8-3.1-4.8l-2.5,2l-3.4-4.6l2.2-2.2L141.5,119z"/>
		<path class="st1" d="M142.8,60c0,0,3.3,2,5,8.1c1.7,6.1,2.3,13.7,2.3,13.7l11.5-2.4l1.1,4.9l6.4-0.8v-5.1c0,0,6,0.3,8.3,0.8
			c2.3,0.4,3.9,1.7,3.9,1.7s1.7-10.1,0.7-16.3c-1-6.2-2.4-10.9-5.4-15.7c-3.1-4.8-7.5-9.7-7.5-9.7L160.1,51l2.4,5.1l-6.1,3.9
			l-3.7-4.7L142.8,60z"/>
		<path class="st1" d="M88.1,30.5L95.2,42l6.2-2.9l4,6.8l-4.5,3.6l5.4,7.7c0,0,5.9-2.6,9.3-3s5.5-0.9,9.1-0.1
			c3.6,0.8,6.8,1.5,6.8,1.5l2.6-8.7l5.2,0.8l1.1-6.9l-5.4-0.6c0,0,0.9-3.7,2.3-5.9c1.4-2.2,3.9-5,3.9-5s-8.3-5.3-16.4-5.6
			s-17.3,0.8-22.6,2.4C96.8,27.5,88.1,30.5,88.1,30.5z"/>
		<ellipse class="st1" cx="89" cy="54.5" rx="7.2" ry="6"/>
		<ellipse class="st1" cx="117.6" cy="62" rx="4.5" ry="3.6"/>
		<ellipse class="st1" cx="116.8" cy="122.4" rx="4.5" ry="3.6"/>
		<ellipse class="st1" cx="149.1" cy="92.2" rx="4.5" ry="3.6"/>
		<ellipse class="st1" cx="78.4" cy="90.3" rx="4.5" ry="3.6"/>
		<ellipse class="st0" cx="107.5" cy="40.3" rx="7.2" ry="6"/>
		<ellipse class="st1" cx="144.5" cy="45" rx="7.2" ry="6"/>
		<ellipse class="st1" cx="88.1" cy="135.3" rx="7.2" ry="6"/>
		<ellipse class="st0" cx="124.7" cy="144.7" rx="7.2" ry="6"/>
		<ellipse class="st1" cx="144.6" cy="135.3" rx="7.2" ry="6"/>
		<ellipse class="st0" cx="162.2" cy="110.3" rx="7.2" ry="6"/>
		<ellipse class="st1" cx="166" cy="87.2" rx="7.2" ry="6"/>
		<ellipse class="st0" cx="162.2" cy="60.4" rx="7.2" ry="6"/>
		<ellipse class="st0" cx="59.2" cy="72.9" rx="7.2" ry="6"/>
		<ellipse class="st1" cx="60.9" cy="93.2" rx="7.2" ry="6"/>
		<ellipse class="st0" cx="71.2" cy="124.8" rx="7.2" ry="6"/>
		<polygon class="st1" points="92.9,89.3 98.7,84.2 116.1,100.7 110.9,105.9 		"/>
		<line class="st2" x1="99.5" y1="110.9" x2="142.8" y2="74"/>
	</g>
</g>
</svg>
