<?xml version="1.0" encoding="utf-8"?>
<!-- Generator: Adobe Illustrator 19.1.0, SVG Export Plug-In . SVG Version: 6.00 Build 0)  -->
<!DOCTYPE svg PUBLIC "-//W3C//DTD SVG 1.1//EN" "http://www.w3.org/Graphics/SVG/1.1/DTD/svg11.dtd">
<svg version="1.1" id="Layer_1" xmlns="http://www.w3.org/2000/svg" xmlns:xlink="http://www.w3.org/1999/xlink" x="0px" y="0px"
	 width="792px" height="612px" viewBox="90 91 792 612" style="enable-background:new 90 91 792 612;" xml:space="preserve">
<style type="text/css">
	.st0{fill:#64BFA4;}
	.st1{fill:#FFFFFF;}
	.st2{fill:none;stroke:#FFFFFF;stroke-width:6;stroke-miterlimit:10;}
</style>
<g>
	<path class="st0" d="M122.9,122.4l2.4,105.6c0,0,0.8,27.7,25.7,27.9c24.9,0.2,110.5,0,110.5,0s16.1-2.4,17.1-33.4
		c1-31.1,0-97.6,0-97.6s-5.2-23.6-27.2-24.3c-22-0.8-106.8,0-106.8,0S122.5,101.4,122.9,122.4z"/>
	<g>
		<path class="st1" d="M134.9,166c0,0-1.5-9.5,0-15.3c1.5-5.8,4.3-10.9,6.8-13.5c2.4-2.6,5.8-5.3,9.7-6.9c3.9-1.5,7.4-2.7,7.4-2.7
			l9.7,13.7l4-2.4l2.9,4.1l-4,2.6c0,0,2.4,4,3.5,5.1c1,1.1,2.1,2,2.1,2s-3.3,0.4-5.5,2.8c-2.3,2.4-3.3,3.6-3.8,5.7
			c-0.5,2.1-0.6,4.8-0.6,4.8h-13.1l0.1-5l-5.2,0.3v4.7L134.9,166L134.9,166z"/>
		<path class="st1" d="M136,186.5c0,0,0,7.4,2.1,13.1c2.1,5.7,3.5,8.7,5.8,11.7s4.4,6.3,7.8,8.9c3.3,2.7,8.1,5.1,8.1,5.1l6.9-9.9
			l-3.2-2.4l3.9-5.1l3,2.2l6.6-8.8c0,0-5.6-3.7-7.3-5.6c-1.6-1.9-2.9-6-3.2-7.6c-0.3-1.5-0.3-4.5-0.3-4.5l-9.8,1.2l-0.9-4.7
			l-5.5,0.6l0.5,5L136,186.5z"/>
		<path class="st1" d="M174.3,236.9l7.8-10.5l-3.2-2.8l3.2-4.5l3.9,2.2l5.8-8.5c0,0,4.7,2,8.4,2.4c3.7,0.4,12-1.8,12-1.8l4.6,7.7
			l-3.8,2.8l2.1,4l3.9-2.7c0,0,2.1,3.5,2.8,5.6c0.7,2.1,1.4,4.7,1.4,4.7s-5.8,5.6-11,6.6c-5.2,1-12,1.1-17.6,0.6
			c-5.6-0.6-10.9-1.3-13.8-2.1C177.8,239.9,174.3,236.9,174.3,236.9z"/>
		<path class="st1" d="M225.7,202.8c0,0,6.1-6,7-8.6s1.4-5.2,1.4-7.1c0-1.9,0-2.9,0-2.9l9.1,1.5l-0.5,4.1l4.5,0.6l0.6-4.2
			c0,0,7.5,2.6,10,2.9c2.5,0.3,5.2,0.1,5.2,0.1s-0.1,6.1-2.5,11.6c-2.4,5.5-4.9,9.7-8,13.8c-3.1,4-12,13.7-12,13.7s-0.5-4.2-1.6-6.9
			c-1.3-2.7-2.8-4.7-2.8-4.7l-2.3,2l-3.1-4.5l2-2.2L225.7,202.8z"/>
		<path class="st1" d="M226.9,144.8c0,0,3,2,4.5,8c1.5,6,2.1,13.5,2.1,13.5l10.4-2.4l1,4.8l5.8-0.8v-5c0,0,5.4,0.3,7.5,0.8
			c2.1,0.4,3.5,1.7,3.5,1.7s1.5-9.9,0.6-16c-0.9-6.1-2.2-10.7-4.9-15.4c-2.8-4.7-6.8-9.5-6.8-9.5l-8.1,11.6l2.2,5l-5.5,3.8l-3.3-4.6
			L226.9,144.8z"/>
		<path class="st1" d="M177.4,115.8l6.4,11.3l5.6-2.9l3.6,6.7l-4.1,3.5l4.9,7.6c0,0,5.3-2.6,8.4-2.9c3.1-0.4,5-0.9,8.2-0.1
			c3.3,0.8,6.2,1.5,6.2,1.5l2.4-8.6l4.7,0.8l1-6.8l-4.9-0.6c0,0,0.8-3.6,2.1-5.8c1.3-2.2,3.5-4.9,3.5-4.9s-7.5-5.2-14.8-5.5
			s-15.7,0.8-20.5,2.4C185.3,112.9,177.4,115.8,177.4,115.8z"/>
		<ellipse class="st1" cx="178.2" cy="139.4" rx="6.5" ry="5.9"/>
		<ellipse class="st1" cx="204.1" cy="146.8" rx="4.1" ry="3.5"/>
		<ellipse class="st1" cx="203.4" cy="206.2" rx="4.1" ry="3.5"/>
		<ellipse class="st1" cx="232.6" cy="176.5" rx="4.1" ry="3.5"/>
		<ellipse class="st1" cx="168.6" cy="174.6" rx="4.1" ry="3.5"/>
		<ellipse class="st0" cx="194.9" cy="125.5" rx="6.5" ry="5.9"/>
		<ellipse class="st1" cx="228.4" cy="130.1" rx="6.5" ry="5.9"/>
		<ellipse class="st1" cx="177.4" cy="218.9" rx="6.5" ry="5.9"/>
		<ellipse class="st0" cx="210.5" cy="228.1" rx="6.5" ry="5.9"/>
		<ellipse class="st1" cx="228.5" cy="218.9" rx="6.5" ry="5.9"/>
		<ellipse class="st0" cx="244.4" cy="194.3" rx="6.5" ry="5.9"/>
		<ellipse class="st1" cx="247.9" cy="171.6" rx="6.5" ry="5.9"/>
		<ellipse class="st0" cx="244.4" cy="145.2" rx="6.5" ry="5.9"/>
		<ellipse class="st0" cx="151.2" cy="157.5" rx="6.5" ry="5.9"/>
		<ellipse class="st1" cx="152.8" cy="177.5" rx="6.5" ry="5.9"/>
		<ellipse class="st0" cx="162.1" cy="208.5" rx="6.5" ry="5.9"/>
		<polygon class="st1" points="181.7,173.6 187,168.6 202.7,184.8 198,189.9 		"/>
		<line class="st2" x1="187.7" y1="194.9" x2="226.9" y2="158.6"/>
	</g>
</g>
</svg>
