<?xml version="1.0" encoding="utf-8"?>
<!-- Generator: Adobe Illustrator 19.1.0, SVG Export Plug-In . SVG Version: 6.00 Build 0)  -->
<!DOCTYPE svg PUBLIC "-//W3C//DTD SVG 1.1//EN" "http://www.w3.org/Graphics/SVG/1.1/DTD/svg11.dtd">
<svg version="1.1" id="Layer_1" xmlns="http://www.w3.org/2000/svg" xmlns:xlink="http://www.w3.org/1999/xlink" x="0px" y="0px"
	 width="792px" height="612px" viewBox="0 0 792 612" style="enable-background:new 0 0 792 612;" xml:space="preserve">
<style type="text/css">
	.st0{fill:#64BFA4;}
	.st1{fill:#FFFFFF;}
	.st2{fill:none;stroke:#FFFFFF;stroke-width:6;stroke-miterlimit:10;}
</style>
<g>
	<path class="st0" d="M202.4,135.6c0,0,0.5-37.4,39.4-41.9s326.6-1.4,326.6-1.4s29.2-2.6,31.2,49.4s-3.3,244.6-3.3,244.6
		s-1.6,37.4-42.2,41.9c-40.6,4.5-303.6,7.8-303.6,7.8s-39.8-9.9-41.8-63.7S202.4,135.6,202.4,135.6z"/>
	<path class="st1" d="M254.6,240.1c0,0-3.6-20.5-0.1-33c3.4-12.5,9.8-23.5,15.2-29.1c5.4-5.5,13.1-11.5,21.9-14.9
		c8.8-3.3,16.7-5.7,16.7-5.7l22,29.3l9-5l6.5,8.9l-9,5.4c0,0,5.6,8.7,7.9,11c2.3,2.3,4.7,4.2,4.7,4.2s-7.4,1-12.5,5.9
		c-5.1,5-7.4,7.8-8.5,12.3c-1.1,4.5-1.3,10.3-1.3,10.3l-29.5,0.1l0.2-10.8l-11.8,0.8l0,10.1L254.6,240.1z"/>
	<path class="st1" d="M257.2,284.3c0,0,0.1,15.7,4.8,27.9c4.7,12.2,8,18.5,13.1,25.1c5.1,6.6,10.1,13.6,17.7,19.2s18.4,11,18.4,11
		l15.5-21.4l-7.2-5.1l8.8-11.1l6.8,4.7l14.8-19.1c0,0-12.8-7.9-16.6-11.9c-3.7-4-6.6-12.9-7.3-16.2c-0.7-3.3-0.7-9.6-0.7-9.6
		l-21.8,2.4l-2-10.1l-12.4,1.5l1,10.8L257.2,284.3z"/>
	<path class="st1" d="M344.3,392.2l17.6-22.6l-7.2-5.8l7.2-9.7l8.9,4.7l12.9-18.1c0,0,10.7,4.2,19.1,4.8c8.4,0.7,27.2-3.9,27.2-3.9
		l10.5,16.4l-8.6,5.9l4.7,8.7l8.8-5.7c0,0,4.7,7.5,6.3,12c1.6,4.5,3.1,10.1,3.1,10.1s-13,12-24.8,14.2s-27.2,2.5-40,1.4
		s-24.6-2.7-31.2-4.3C352.3,398.5,344.3,392.2,344.3,392.2z"/>
	<path class="st1" d="M460.2,318.4c0,0,13.7-13,15.7-18.4c2.1-5.4,3-11.3,3-15.3c0-4,0-6.3,0-6.3l20.7,3l-0.9,8.9l10.2,1.1l1.4-9.2
		c0,0,17,5.3,22.8,6c5.8,0.7,11.9,0.2,11.9,0.2s-0.2,13.2-5.7,24.9c-5.5,11.8-11.1,21-18,29.7c-6.9,8.7-27.1,29.4-27.1,29.4
		s-1-9-3.8-14.7c-2.8-5.6-6.3-10.1-6.3-10.1l-5.1,4.3l-7-9.6l4.4-4.7L460.2,318.4z"/>
	<path class="st1" d="M462.4,193.6c0,0,6.8,4.2,10.3,17.1c3.5,12.9,4.8,28.9,4.8,28.9l23.4-5.3l2.4,10.3l13-1.7l0-10.8
		c0,0,12.3,0.7,17,1.6s7.9,3.5,7.9,3.5s3.4-21.4,1.2-34.5c-2.1-13.1-5-23-11.3-33.1c-6.3-10.1-15.4-20.4-15.4-20.4l-18,25.2l5,10.8
		l-12.4,8.3l-7.5-9.8L462.4,193.6z"/>
	<path class="st1" d="M350.2,131.9l14.5,24.1l12.8-6.2l8.2,14.3l-9.3,7.6l11.2,16.2c0,0,12.1-5.5,19-6.4c7-1,11.3-1.9,18.7-0.3
		s13.9,3.2,13.9,3.2l5.3-18.3l10.7,1.6l2.3-14.6l-11.2-1.4c0,0,1.8-7.8,4.6-12.5c2.8-4.7,7.9-10.6,7.9-10.6S441.6,117.4,425,117
		c-16.6-0.4-35.4,1.8-46.3,5.1S350.2,131.9,350.2,131.9z"/>
	
		<ellipse transform="matrix(1 -4.421896e-03 4.421896e-03 1 -0.8037 1.5588)" class="st1" cx="352.1" cy="182.5" rx="14.7" ry="12.6"/>
	
		<ellipse transform="matrix(1 -4.421896e-03 4.421896e-03 1 -0.8724 1.8179)" class="st1" cx="410.7" cy="198.2" rx="9.2" ry="7.6"/>
	
		<ellipse transform="matrix(1 -4.421896e-03 4.421896e-03 1 -1.4362 1.8154)" class="st1" cx="409.8" cy="325.7" rx="9.2" ry="7.6"/>
	
		<ellipse transform="matrix(1 -4.421896e-03 4.421896e-03 1 -1.1521 2.1054)" class="st1" cx="475.6" cy="261.6" rx="9.2" ry="7.6"/>
	<ellipse transform="matrix(1 -4.421896e-03 4.421896e-03 1 -1.1386 1.465)" class="st1" cx="330.7" cy="258.2" rx="9.2" ry="7.6"/>
	
		<ellipse transform="matrix(1 -4.421896e-03 4.421896e-03 1 -0.6704 1.7252)" class="st0" cx="389.8" cy="152.5" rx="14.7" ry="12.6"/>
	
		<ellipse transform="matrix(1 -4.421896e-03 4.421896e-03 1 -0.7119 2.0606)" class="st1" cx="465.6" cy="162" rx="14.7" ry="12.6"/>
	
		<ellipse transform="matrix(1 -4.421896e-03 4.421896e-03 1 -1.5587 1.5562)" class="st1" cx="351.1" cy="353.3" rx="14.7" ry="12.6"/>
	
		<ellipse transform="matrix(1 -4.421896e-03 4.421896e-03 1 -1.6437 1.888)" class="st0" cx="426.1" cy="372.7" rx="14.7" ry="12.6"/>
	
		<ellipse transform="matrix(1 -4.421896e-03 4.421896e-03 1 -1.5553 2.0674)" class="st1" cx="466.8" cy="352.8" rx="14.7" ry="12.6"/>
	
		<ellipse transform="matrix(1 -4.421896e-03 4.421896e-03 1 -1.3205 2.2251)" class="st0" cx="502.5" cy="299.7" rx="14.7" ry="12.6"/>
	<ellipse transform="matrix(1 -4.421896e-03 4.421896e-03 1 -1.1048 2.2577)" class="st1" cx="510" cy="251" rx="14.7" ry="12.6"/>
	
		<ellipse transform="matrix(1 -4.421896e-03 4.421896e-03 1 -0.8548 2.222)" class="st0" cx="502.1" cy="194.4" rx="14.7" ry="12.6"/>
	
		<ellipse transform="matrix(1 -4.421896e-03 4.421896e-03 1 -0.9776 1.2908)" class="st0" cx="291.4" cy="221.7" rx="14.7" ry="12.6"/>
	
		<ellipse transform="matrix(1 -4.421896e-03 4.421896e-03 1 -1.1667 1.3075)" class="st1" cx="295.1" cy="264.5" rx="14.7" ry="12.6"/>
	
		<ellipse transform="matrix(1 -4.421896e-03 4.421896e-03 1 -1.4615 1.4022)" class="st0" cx="316.4" cy="331.2" rx="14.7" ry="12.6"/>
	<polygon class="st1" points="360.5,256 372.4,245.2 408.2,280 397.5,290.9 	"/>
	<line class="st2" x1="374.1" y1="301.6" x2="462.6" y2="223.3"/>
</g>
</svg>
