<?xml version="1.0" encoding="utf-8"?>
<!-- Generator: Adobe Illustrator 19.1.0, SVG Export Plug-In . SVG Version: 6.00 Build 0)  -->
<!DOCTYPE svg PUBLIC "-//W3C//DTD SVG 1.1//EN" "http://www.w3.org/Graphics/SVG/1.1/DTD/svg11.dtd">
<svg version="1.1" id="Layer_1" xmlns="http://www.w3.org/2000/svg" xmlns:xlink="http://www.w3.org/1999/xlink" x="0px" y="0px"
	 width="792px" height="612px" viewBox="0 0 792 612" style="enable-background:new 0 0 792 612;" xml:space="preserve">
<style type="text/css">
	.st0{fill:#64BFA4;}
	.st1{fill:#FFFFFF;}
	.st2{fill:none;stroke:#FFFFFF;stroke-width:6;stroke-miterlimit:10;}
</style>
<g>
	<path class="st0" d="M185.9,156.8l6.2,265c0,0,2.2,69.5,68.4,70c66.3,0.5,294,0,294,0S597.3,486,600,408s0-245.1,0-245.1
		s-14-59.2-72.6-61c-58.6-1.9-284.2,0-284.2,0S184.6,103.8,185.9,156.8z"/>
	<g>
		<path class="st1" d="M217.9,266.1c0,0-4.1-24,0-38.6s11.6-27.5,18-33.9c6.4-6.4,15.4-13.4,25.8-17.3c10.4-3.8,19.7-6.6,19.7-6.6
			l25.7,34.3l10.7-5.8l7.7,10.4l-10.7,6.3c0,0,6.6,10.2,9.3,12.9c2.7,2.7,5.5,4.9,5.5,4.9s-8.8,1.1-14.8,6.9s-8.8,9.1-10.1,14.3
			s-1.6,12-1.6,12h-34.7l0.3-12.6l-13.9,0.8v11.8H217.9z"/>
		<path class="st1" d="M220.7,317.7c0,0,0,18.4,5.5,32.7s9.3,21.7,15.3,29.4c6,7.7,11.8,15.9,20.8,22.5c9,6.6,21.6,12.9,21.6,12.9
			l18.3-25l-8.5-6l10.4-12.9l7.9,5.5l17.5-22.2c0,0-15-9.3-19.4-14c-4.4-4.7-7.7-15.1-8.5-18.9c-0.8-3.8-0.8-11.3-0.8-11.3
			l-25.7,2.7l-2.3-11.8l-14.6,1.6l1.1,12.6L220.7,317.7z"/>
		<path class="st1" d="M322.7,444.2l20.8-26.3L335,411l8.5-11.3l10.4,5.5l15.3-21.1c0,0,12.6,4.9,22.4,5.8s32-4.4,32-4.4l12.3,19.2
			l-10.1,6.9l5.5,10.2l10.4-6.6c0,0,5.5,8.8,7.4,14c1.9,5.2,3.6,11.8,3.6,11.8s-15.3,14-29.3,16.5s-32,2.7-47,1.4
			c-15-1.4-29-3.3-36.6-5.2C332,451.6,322.7,444.2,322.7,444.2z"/>
		<path class="st1" d="M459.5,358.6c0,0,16.1-15.1,18.6-21.4c2.5-6.3,3.6-13.2,3.6-17.8c0-4.7,0-7.4,0-7.4l24.3,3.6l-1.1,10.4
			l12,1.4l1.6-10.7c0,0,20,6.3,26.8,7.1s13.9,0.3,13.9,0.3s-0.3,15.4-6.8,29.1c-6.6,13.7-13.1,24.4-21.3,34.6
			c-8.2,10.2-32,34.2-32,34.2s-1.1-10.6-4.4-17.2c-3.3-6.6-7.4-11.8-7.4-11.8l-6,4.9l-8.2-11.3l5.2-5.5L459.5,358.6z"/>
		<path class="st1" d="M462.7,212.9c0,0,7.9,4.9,12,20s5.5,33.8,5.5,33.8l27.6-6l2.7,12.1l15.3-1.9v-12.6c0,0,14.5,0.8,20,1.9
			c5.5,1.1,9.3,4.1,9.3,4.1s4.1-25,1.6-40.3c-2.5-15.4-5.7-26.9-13.1-38.7s-18-23.9-18-23.9l-21.3,29.4l5.9,12.6l-14.6,9.6
			l-8.8-11.5L462.7,212.9z"/>
		<path class="st1" d="M330.9,140.2l17,28.3l15-7.1l9.6,16.7l-10.9,8.8l13.1,18.9c0,0,14.2-6.3,22.4-7.4s13.3-2.2,22-0.3
			c8.6,1.9,16.3,3.8,16.3,3.8l6.3-21.4l12.6,1.9l2.7-17l-13.1-1.6c0,0,2.2-9.1,5.5-14.5c3.3-5.5,9.3-12.3,9.3-12.3
			s-20-13.2-39.5-13.7s-41.7,1.9-54.5,5.8C351.7,132.8,330.9,140.2,330.9,140.2z"/>
		<ellipse class="st1" cx="333" cy="199.4" rx="17.3" ry="14.7"/>
		<ellipse class="st1" cx="401.8" cy="218" rx="10.8" ry="8.9"/>
		<ellipse class="st1" cx="400.1" cy="366.9" rx="10.8" ry="8.9"/>
		<ellipse class="st1" cx="477.8" cy="292.4" rx="10.8" ry="8.9"/>
		<ellipse class="st1" cx="307.4" cy="287.7" rx="10.8" ry="8.9"/>
		<ellipse class="st0" cx="377.5" cy="164.4" rx="17.3" ry="14.7"/>
		<ellipse class="st1" cx="466.7" cy="176" rx="17.3" ry="14.7"/>
		<ellipse class="st1" cx="330.9" cy="398.8" rx="17.3" ry="14.7"/>
		<ellipse class="st0" cx="419.1" cy="421.9" rx="17.3" ry="14.7"/>
		<ellipse class="st1" cx="467" cy="398.8" rx="17.3" ry="14.7"/>
		<ellipse class="st0" cx="509.4" cy="337.1" rx="17.3" ry="14.7"/>
		<ellipse class="st1" cx="518.4" cy="280.1" rx="17.3" ry="14.7"/>
		<ellipse class="st0" cx="509.4" cy="214" rx="17.3" ry="14.7"/>
		<ellipse class="st0" cx="261.3" cy="244.8" rx="17.3" ry="14.7"/>
		<ellipse class="st1" cx="265.4" cy="294.8" rx="17.3" ry="14.7"/>
		<ellipse class="st0" cx="290.1" cy="372.9" rx="17.3" ry="14.7"/>
		<polygon class="st1" points="342.4,285.3 356.5,272.7 398.4,313.5 385.8,326.2 		"/>
		<line class="st2" x1="358.3" y1="338.6" x2="462.7" y2="247.6"/>
	</g>
</g>
</svg>
