<svg xmlns="http://www.w3.org/2000/svg" width="792" height="612" viewBox="0 0 792 612"><style type="text/css">.st0{fill:#66C1A6;} .st1{fill:#218F79;} .st2{fill:#E8E883;} .st3{fill:none;stroke:#F3F5F5;stroke-miterlimit:10;} .st4{fill:none;stroke:#66C1A6;stroke-width:2;stroke-miterlimit:10;} .st5{fill:none;stroke:#67C1A6;stroke-miterlimit:10;} .st6{fill:none;stroke:#66C1A6;stroke-miterlimit:10;}</style><path class="st0" d="M134.9 43.2c19.8-2.6 34.9 1 38.6 2 2.9.7 16.4 4.3 31.6 14.5 17.6 11.8 27.1 25.5 29.6 29.3 4.1 6.2 11.2 18.3 14.8 35.2 1.4 6.5 4 21.4.8 39.8-5.4 31.1-23.2 50.5-26.9 54.3-4.4 4.6-22.9 23.2-53.8 29.7-21.6 4.5-39.6 1.2-49.5-1.6-23.6-6.5-38.5-19.4-43.7-24.2-13.6-12.7-20.4-26-23-31.6-2.5-5.4-11.6-26.3-8.6-54.3.7-6.3 3-22.8 13.3-41 11.1-20 25.5-30.9 28.8-33.3 3.4-2.5 21.1-15.2 48-18.8z"/><path class="st1" d="M83.3 75s.3-5.9 6.2-6.1c5.8-.2 32.5 0 32.5 0s6.2.1 6.5 6.1v55.3l.1 23.8s0 8.1-6.4 8.2c-6.4.1-32.9 0-32.9 0s-5.8-1.3-5.9-6.5l-.1-80.8z"/><ellipse class="st2" cx="120.6" cy="74.1" rx="3.4" ry="3"/><ellipse class="st0" cx="105.9" cy="73.7" rx="1.5" ry="1.2"/><path class="st2" d="M112.2 79.4h-12.3c-.7 0-1.2-.5-1.2-1.2s.5-1.2 1.2-1.2h12.3c.7 0 1.2.5 1.2 1.2s-.5 1.2-1.2 1.2z"/><ellipse class="st1" cx="103" cy="78.2" rx=".8" ry=".7"/><ellipse class="st1" cx="105.9" cy="78.2" rx=".8" ry=".7"/><ellipse class="st1" cx="109" cy="78.2" rx=".8" ry=".7"/><path class="st0" d="M86.4 83.5h38.5v63.7h-38.5v-63.7z"/><path class="st2" d="M111.8 157.2h-12.8c-1.3 0-2.3-1-2.3-2.3s1-2.3 2.3-2.3h12.8c1.3 0 2.3 1 2.3 2.3s-1 2.3-2.3 2.3zm-25.4-10l38.6-63.7v63.7h-38.6zm130.4 77.3c8.1-6.3 16.6-18.9 16.6-18.9 5.7-7.7 11.5-22.1 11.5-22.1 3.1-7.3 5-17.5 5-17.5 1.7-7.5 1.9-18.8 1.9-18.8.1-2.6-.2-8-.6-12.4-.4-4.4-1.8-11.3-1.8-11.3-.8-4.2-1.7-6.5-3.2-11.3l-4.5-10.9c-3-7-7.6-13.3-7.6-13.3-4.8-7.9-14.5-16.8-14.5-16.8l-146.7 147.6s9.1 10.5 21.5 16.7c0 0 16.6 10.5 32.5 12.5 0 0 17.6 4.3 36.6 1 0 0 22.3-2.9 36.8-12.9 14.5-9.9 16.5-11.6 16.5-11.6zm-16.2 11.4l15.9-11.2s-3.3 2.8-4.8 3.9-5.9 4.2-6.4 4.5l-4.7 2.8z"/><path class="st1" d="M161.9 175.4v20.5s.7 1.6 2.8 2h38.3s2.6-.5 2.7-2.5c.1-2 0-19.7 0-19.7l-5.1-4.2-.2-8.4h-10.4l-6.2-4.6-5.7 4.4-11 .1-.2 8.7-5 3.7z"/><path class="st3" d="M161.9 176.4"/><path class="st4" d="M170 167l27.3.1m-27.3 4l27.3.1m-27.3 3.7l27.3.1m-27.3 4l27.3.2"/><path class="st0" d="M162.5 196.7l12.6-11.6 1.2.8-12.7 11.7s-.6-.3-.8-.5l-.3-.4z"/><path class="st5" d="M167.1 177"/><path class="st2" d="M166.9 177v2.9l16.1 10.2s.7.6 1.2.3l16.6-10.5v-2.9l-16.3 10.6s-.6.5-1.1.1c-.6-.4-16.5-10.7-16.5-10.7z"/><path class="st0" d="M191.4 185.8l12.8 11.8s.8-.1.9-.6l-12.4-12-1.3.8zm-29.5-10.4v1l5 3.5-.2-8-4.8 3.5z"/><path class="st6" d="M200.7 171.5"/><path class="st0" d="M178.2 162.9l5.7-4.4 6.2 4.6-12-.1.1-.1zm22.5 8.6l.1 8.3 5-3.2v-.9l-5.1-4.2z"/><path class="st1" d="M205.4 139.5c-3.3-1.8-8.6-4.3-15.5-5.3-11.2-1.7-20 1-23.8 2.5-2.6 1-10.1 4.1-17 11.3-1.6 1.6-6.9 7.3-10.5 16.6-2.6 6.9-3.2 13-3.3 17l11.2.4c-.2-2.9-.2-7.6 1.6-13 2.3-6.9 6.2-11.1 8.1-13.2 1.9-2 6.1-6.3 13.2-9.2 1.9-.7 8.4-3.2 17-2.3 4.8.5 8.6 1.8 11 2.9l8-7.7zm-18.8 19l10.9-11.4 18.2-18.7 2.3 30.1h-31.4zm-20.3 52.7c2.4 1 6.2 2.3 10.9 2.8 2.3.2 7.1.5 12.9-.9 8-2 13.1-6 15.3-7.8 5.8-4.7 8.6-9.7 9.3-11.2 2.8-5.2 3.5-9.8 3.8-11.9.3-2.2.4-4.1.4-5.6h10.7c.2 2.9.2 7-1 11.9-1.3 5.1-3.3 8.7-4.8 11.2-1.8 3-4.6 7.7-9.9 12.3-1.7 1.4-7 5.8-15.5 8.6-8.1 2.7-14.8 2.5-18.5 2.4-8.2-.2-14.9-2.1-19.5-3.9l5.9-7.9zm-15.9 18.2l-2.3-28.9h31.2l-28.5 29.8"/></svg>