<?xml version="1.0" encoding="utf-8"?>
<!-- Generator: Adobe Illustrator 19.1.0, SVG Export Plug-In . SVG Version: 6.00 Build 0)  -->
<!DOCTYPE svg PUBLIC "-//W3C//DTD SVG 1.1//EN" "http://www.w3.org/Graphics/SVG/1.1/DTD/svg11.dtd">
<svg version="1.1" id="Layer_1" xmlns="http://www.w3.org/2000/svg" xmlns:xlink="http://www.w3.org/1999/xlink" x="0px" y="0px"
	 width="792px" height="612px" viewBox="0 0 792 612" style="enable-background:new 0 0 792 612;" xml:space="preserve">
<style type="text/css">
	.st0{fill:#66C1A6;}
	.st1{fill:#218F79;}
	.st2{fill:#E8E883;}
	.st3{fill:none;stroke:#F3F5F5;stroke-miterlimit:10;}
	.st4{fill:none;stroke:#66C1A6;stroke-width:2;stroke-miterlimit:10;}
	.st5{fill:none;stroke:#67C1A6;stroke-miterlimit:10;}
	.st6{fill:none;stroke:#66C1A6;stroke-miterlimit:10;}
</style>
<g>
	<path class="st0" d="M134.9,43.2c19.8-2.6,34.9,1,38.6,2c2.9,0.7,16.4,4.3,31.6,14.5c17.6,11.8,27.1,25.5,29.6,29.3
		c4.1,6.2,11.2,18.3,14.8,35.2c1.4,6.5,4,21.4,0.8,39.8c-5.4,31.1-23.2,50.5-26.9,54.3c-4.4,4.6-22.9,23.2-53.8,29.7
		c-21.6,4.5-39.6,1.2-49.5-1.6c-23.6-6.5-38.5-19.4-43.7-24.2c-13.6-12.7-20.4-26-23-31.6c-2.5-5.4-11.6-26.3-8.6-54.3
		c0.7-6.3,3-22.8,13.3-41C69.2,75.3,83.6,64.4,86.9,62C90.3,59.5,108,46.8,134.9,43.2z"/>
	<g>
		<path class="st1" d="M83.3,75c0,0,0.3-5.9,6.2-6.1c5.8-0.2,32.5,0,32.5,0s6.2,0.1,6.5,6.1c0.3,6,0,55.3,0,55.3l0.1,23.8
			c0,0,0,8.1-6.4,8.2c-6.4,0.1-32.9,0-32.9,0s-5.8-1.3-5.9-6.5S83.3,75,83.3,75z"/>
		<ellipse class="st2" cx="120.6" cy="74.1" rx="3.4" ry="3"/>
		<ellipse class="st0" cx="105.9" cy="73.7" rx="1.5" ry="1.2"/>
		<path class="st2" d="M112.2,79.4H99.9c-0.7,0-1.2-0.5-1.2-1.2v0c0-0.7,0.5-1.2,1.2-1.2h12.3c0.7,0,1.2,0.5,1.2,1.2v0
			C113.4,78.9,112.9,79.4,112.2,79.4z"/>
		<ellipse class="st1" cx="103" cy="78.2" rx="0.8" ry="0.7"/>
		<ellipse class="st1" cx="105.9" cy="78.2" rx="0.8" ry="0.7"/>
		<ellipse class="st1" cx="109" cy="78.2" rx="0.8" ry="0.7"/>
		<rect x="86.4" y="83.5" class="st0" width="38.5" height="63.7"/>
		<path class="st2" d="M111.8,157.2H99c-1.3,0-2.3-1-2.3-2.3v0c0-1.3,1-2.3,2.3-2.3h12.8c1.3,0,2.3,1,2.3,2.3v0
			C114.1,156.2,113.1,157.2,111.8,157.2z"/>
		<polygon class="st2" points="86.4,147.2 125,83.5 125,147.2 		"/>
	</g>
	<path class="st2" d="M216.8,224.5c8.1-6.3,16.6-18.9,16.6-18.9c5.7-7.7,11.5-22.1,11.5-22.1c3.1-7.3,5-17.5,5-17.5
		c1.7-7.5,1.9-18.8,1.9-18.8c0.1-2.6-0.2-8-0.6-12.4c-0.4-4.4-1.8-11.3-1.8-11.3c-0.8-4.2-1.7-6.5-3.2-11.3
		c-1.5-4.8-4.5-10.9-4.5-10.9c-3-7-7.6-13.3-7.6-13.3c-4.8-7.9-14.5-16.8-14.5-16.8L72.9,218.8c0,0,9.1,10.5,21.5,16.7
		c0,0,16.6,10.5,32.5,12.5c0,0,17.6,4.3,36.6,1c0,0,22.3-2.9,36.8-12.9C214.8,226.2,216.8,224.5,216.8,224.5z"/>
	<path class="st2" d="M214.8,242.8"/>
	<path class="st2" d="M200.6,235.9l15.9-11.2c0,0-3.3,2.8-4.8,3.9c-1.5,1.1-5.9,4.2-6.4,4.5S200.6,235.9,200.6,235.9z"/>
	<g>
		<path class="st1" d="M161.9,175.4v20.5c0,0,0.7,1.6,2.8,2s38.3,0,38.3,0s2.6-0.5,2.7-2.5c0.1-2,0-19.7,0-19.7l-5.1-4.2l-0.2-8.4
			h-10.4l-6.2-4.6l-5.7,4.4l-11,0.1l-0.2,8.7L161.9,175.4z"/>
		<path class="st3" d="M161.9,176.4"/>
		<line class="st4" x1="170" y1="167" x2="197.3" y2="167.1"/>
		<line class="st4" x1="170" y1="171.1" x2="197.3" y2="171.2"/>
		<line class="st4" x1="170" y1="174.9" x2="197.3" y2="175"/>
		<line class="st4" x1="170" y1="179" x2="197.3" y2="179.2"/>
		<path class="st0" d="M162.5,196.7l12.6-11.6l1.2,0.8l-12.7,11.7c0,0-0.6-0.3-0.8-0.5S162.5,196.7,162.5,196.7z"/>
		<path class="st5" d="M167.1,177"/>
		<path class="st2" d="M166.9,177v2.9l16.1,10.2c0,0,0.7,0.6,1.2,0.3c0.5-0.3,16.6-10.5,16.6-10.5V177l-16.3,10.6
			c0,0-0.6,0.5-1.1,0.1C182.8,187.3,166.9,177,166.9,177z"/>
		<path class="st0" d="M191.4,185.8l12.8,11.8c0,0,0.8-0.1,0.9-0.6s-12.4-12-12.4-12L191.4,185.8z"/>
		<polygon class="st0" points="161.9,175.4 161.9,176.4 166.9,179.9 166.7,171.9 		"/>
		<path class="st6" d="M200.7,171.5"/>
		<polygon class="st0" points="178.2,162.9 183.9,158.5 190.1,163.1 178.1,163 		"/>
		<polygon class="st0" points="200.7,171.5 200.8,179.8 205.8,176.6 205.8,175.7 		"/>
		<g>
			<path class="st1" d="M205.4,139.5c-3.3-1.8-8.6-4.3-15.5-5.3c-11.2-1.7-20,1-23.8,2.5c-2.6,1-10.1,4.1-17,11.3
				c-1.6,1.6-6.9,7.3-10.5,16.6c-2.6,6.9-3.2,13-3.3,17l11.2,0.4c-0.2-2.9-0.2-7.6,1.6-13c2.3-6.9,6.2-11.1,8.1-13.2
				c1.9-2,6.1-6.3,13.2-9.2c1.9-0.7,8.4-3.2,17-2.3c4.8,0.5,8.6,1.8,11,2.9L205.4,139.5z"/>
			<polygon class="st1" points="186.6,158.5 197.5,147.1 215.7,128.4 218,158.5 			"/>
			<path class="st1" d="M166.3,211.2c2.4,1,6.2,2.3,10.9,2.8c2.3,0.2,7.1,0.5,12.9-0.9c8-2,13.1-6,15.3-7.8
				c5.8-4.7,8.6-9.7,9.3-11.2c2.8-5.2,3.5-9.8,3.8-11.9c0.3-2.2,0.4-4.1,0.4-5.6h10.7c0.2,2.9,0.2,7-1,11.9
				c-1.3,5.1-3.3,8.7-4.8,11.2c-1.8,3-4.6,7.7-9.9,12.3c-1.7,1.4-7,5.8-15.5,8.6c-8.1,2.7-14.8,2.5-18.5,2.4
				c-8.2-0.2-14.9-2.1-19.5-3.9L166.3,211.2z"/>
			<polyline class="st1" points="150.4,229.4 148.1,200.5 179.3,200.5 150.8,230.3 			"/>
		</g>
	</g>
</g>
</svg>
