<?xml version="1.0" encoding="utf-8"?>
<!-- Generator: Adobe Illustrator 19.1.0, SVG Export Plug-In . SVG Version: 6.00 Build 0)  -->
<!DOCTYPE svg PUBLIC "-//W3C//DTD SVG 1.1//EN" "http://www.w3.org/Graphics/SVG/1.1/DTD/svg11.dtd">
<svg version="1.1" id="Layer_1" xmlns="http://www.w3.org/2000/svg" xmlns:xlink="http://www.w3.org/1999/xlink" x="0px" y="0px"
	 width="792px" height="612px" viewBox="90 91 792 612" style="enable-background:new 90 91 792 612;" xml:space="preserve">
<style type="text/css">
	.st0{fill:#218F79;}
	.st1{fill:#66C1A6;}
	.st2{fill:#E8E883;}
	.st3{fill:#FFFFFF;}
	.st4{opacity:0.47;fill:#66C1A6;enable-background:new    ;}
	.st5{opacity:0.31;fill:#66C1A6;enable-background:new    ;}
	.st6{fill:#94B761;}
</style>
<g>
	<path class="st0" d="M199.8,128.2c19.2-2.3,33.9,0.9,37.5,1.8c2.8,0.6,15.9,3.8,30.7,12.8c17.1,10.4,26.3,22.5,28.8,25.8
		c4,5.5,10.9,16.1,14.4,31c1.4,5.7,3.9,18.9,0.8,35.1c-5.2,27.4-22.6,44.5-26.1,47.8c-4.3,4.1-22.3,20.4-52.3,26.2
		c-21,4-38.5,1.1-48.1-1.4c-22.9-5.7-37.4-17.1-42.5-21.3c-13.2-11.2-19.8-22.9-22.4-27.8c-2.4-4.8-11.3-23.2-8.4-47.8
		c0.7-5.6,2.9-20.1,12.9-36.1c10.9-17.5,24.8-27.1,28.1-29.3C156.5,142.5,173.7,131.3,199.8,128.2z"/>
	<path class="st1" d="M149.4,238.5v-61.9c0,0,1.9-9.8,11.3-9.8c9.3,0,105.8,0,105.8,0s10.1-0.6,10.1,9.6c0,10.2,0,62.1,0,62.1
		L149.4,238.5L149.4,238.5z"/>
	<path class="st1" d="M290,259.3c0,0-148.6,0-152.6,0s-4-4.3-4-4.3l16-16.5L290,259.3z"/>
	<rect x="162.4" y="179.2" class="st2" width="102" height="53.8"/>
	<path class="st1" d="M276.5,238.5l16.2,15.7c0,0,2.1,5-2.8,5c-5,0-140.6-20.7-140.6-20.7H276.5z"/>
	<rect x="156.1" y="241.1" class="st2" width="28.1" height="3.7"/>
	<rect x="189.3" y="241.1" class="st2" width="18.8" height="3.7"/>
	<rect x="162.4" y="247.1" class="st2" width="18.8" height="3.7"/>
	<rect x="184.2" y="247.1" class="st2" width="18.8" height="3.7"/>
	<rect x="206.1" y="247.1" class="st2" width="18.8" height="3.7"/>
	<rect x="227.8" y="247.1" class="st2" width="18.8" height="3.7"/>
	<rect x="249.4" y="247.1" class="st2" width="18.8" height="3.7"/>
	<rect x="211.4" y="241.1" class="st2" width="18.3" height="3.7"/>
	<rect x="232.1" y="241.1" class="st2" width="18.3" height="3.7"/>
	<rect x="252.7" y="241.1" class="st2" width="18.3" height="3.7"/>
	<rect x="181.6" y="252.7" class="st2" width="59.7" height="3.7"/>
	<path class="st1" d="M257.7,202.4c6,9.6,2.9,21.2-7,26.1c-9.8,4.8-22.6,1.1-28.7-8.5c-6-9.6-2.9-21.2,7-26.1
		C238.8,189,251.7,192.9,257.7,202.4z"/>
	<path class="st3" d="M254,204.3c4.9,7.8,2.4,17.2-5.3,21.1s-18.1,0.7-22.9-7c-4.9-7.8-2.4-17.2,5.3-21.1S249.1,196.6,254,204.3z"/>
	<path class="st2" d="M251.3,205.7c3.9,6.2,1.9,13.7-4.4,16.8c-6.3,3.1-14.6,0.6-18.5-5.6c-3.9-6.2-1.9-13.7,4.4-16.8
		C239.1,196.9,247.4,199.4,251.3,205.7z"/>
	<path class="st0" d="M246.4,207.6c2.4,3.8,1.2,8.5-2.7,10.4s-8.9,0.4-11.4-3.4c-2.4-3.8-1.2-8.5,2.7-10.4S244.1,203.7,246.4,207.6z
		"/>
	<path class="st4" d="M245.8,199.1c1.6,2.5,0.7,5.6-2,7c-2.7,1.3-6.2,0.4-7.8-2.1c-1.6-2.5-0.7-5.6,2-7S244.3,196.5,245.8,199.1z"/>
	<path class="st5" d="M239.9,216.9c1.1,1.7,0.6,3.7-1.1,4.5s-3.9,0.1-4.9-1.6c-1.1-1.7-0.6-3.7,1.1-4.5
		C236.6,214.6,238.8,215.3,239.9,216.9z"/>
	<path class="st6" d="M248.3,229.5l2.1,3.4l4.2-2l-2.1-3.3c0,0-0.4,0.4-1.7,1C249.3,229.2,248.3,229.5,248.3,229.5z"/>
	<path class="st0" d="M250.4,233c0,0-0.7,0.7-0.3,1.3c0.4,0.6,7.4,11.7,7.4,11.7s0.7,0.6,1.4,0.4c0.8-0.2,4.6-2.3,4.6-2.3
		s0.4-0.4,0-0.8c-0.3-0.5-7.5-12-7.5-12s-0.8-0.7-1.4-0.4S250.4,233,250.4,233z"/>
</g>
</svg>
