<svg xmlns="http://www.w3.org/2000/svg" width="792" height="612" viewBox="90 91 792 612" enable-background="new 90 91 792 612"><style type="text/css">.st0{fill:#218F79;} .st1{fill:#66C1A6;} .st2{fill:#E8E883;} .st3{fill:#FFFFFF;} .st4{opacity:0.47;fill:#66C1A6;enable-background:new ;} .st5{opacity:0.31;fill:#66C1A6;enable-background:new ;} .st6{fill:#94B761;}</style><path class="st0" d="M284 150c19.8-2.6 34.9 1 38.6 2 2.9.7 16.4 4.3 31.6 14.5 17.6 11.8 27.1 25.5 29.6 29.3 4.1 6.2 11.2 18.3 14.8 35.2 1.4 6.5 4 21.4.8 39.8-5.4 31.1-23.2 50.5-26.9 54.3-4.4 4.6-22.9 23.2-53.8 29.7-21.6 4.5-39.6 1.2-49.5-1.6-23.6-6.5-38.5-19.4-43.7-24.2-13.6-12.7-20.4-26-23-31.6-2.5-5.4-11.6-26.3-8.6-54.3.7-6.3 3-22.8 13.3-41 11.2-19.9 25.5-30.8 28.9-33.2 3.4-2.7 21.1-15.4 47.9-18.9z"/><path class="st1" d="M232.2 275.2v-70.2s2-11.1 11.6-11.1h108.8s10.4-.7 10.4 10.9v70.5h-130.8v-.1zM376.8 298.8h-157l-4.1-4.9 16.5-18.7 144.6 23.6z"/><path class="st0" d="M245.6 207.9h104.9v61.1h-104.9z"/><path class="st1" d="M363 275.2l16.7 17.8s2.2 5.7-2.9 5.7-144.6-23.5-144.6-23.5h130.8z"/><path class="st2" d="M239.1 278.1h28.9v4.2h-28.9zM273.2 278.1h19.3v4.2h-19.3zM245.6 284.9h19.3v4.2h-19.3zM268 284.9h19.3v4.2h-19.3zM290.5 284.9h19.3v4.2h-19.3zM312.9 284.9h19.3v4.2h-19.3zM335.1 284.9h19.3v4.2h-19.3zM296 278.1h18.8v4.2h-18.8zM317.3 278.1h18.8v4.2h-18.8zM338.5 278.1h18.8v4.2h-18.8zM265.3 291.3h61.4v4.2h-61.4z"/><path class="st1" d="M343.6 234.2c6.2 10.9 3 24.1-7.2 29.6-10.1 5.5-23.3 1.2-29.5-9.7-6.2-10.9-3-24.1 7.2-29.6 10.1-5.5 23.3-1.1 29.5 9.7z"/><path class="st3" d="M339.8 236.4c5 8.8 2.5 19.5-5.5 23.9-8 4.4-18.6.8-23.6-8s-2.5-19.5 5.5-23.9 18.6-.8 23.6 8z"/><path class="st2" d="M337 237.9c4 7 2 15.6-4.5 19.1-6.5 3.5-15 .7-19-6.3s-2-15.6 4.5-19.1c6.5-3.6 15-.8 19 6.3z"/><path class="st0" d="M332 240.1c2.5 4.3 1.2 9.6-2.8 11.8s-9.2.4-11.7-3.9-1.2-9.6 2.8-11.8 9.3-.5 11.7 3.9z"/><path class="st4" d="M331.4 230.4c1.6 2.8.7 6.4-2.1 7.9s-6.4.4-8-2.4c-1.6-2.8-.7-6.4 2.1-7.9s6.4-.5 8 2.4z"/><path class="st5" d="M325.3 250.7c1.1 1.9.6 4.2-1.1 5.1-1.7.9-4 .1-5-1.8-1.1-1.9-.6-4.2 1.1-5.1 1.6-.9 3.9-.1 5 1.8z"/><path class="st6" d="M333.9 265l2.2 3.9 4.3-2.3-2.2-3.8s-.4.4-1.8 1.1c-1.4.7-2.5 1.1-2.5 1.1z"/><path class="st0" d="M336.1 268.9s-.7.8-.3 1.5l7.6 13.3s.7.7 1.4.5c.8-.2 4.7-2.6 4.7-2.6s.4-.4 0-.9c-.3-.6-7.7-13.6-7.7-13.6s-.8-.8-1.4-.5c-.6.3-4.3 2.3-4.3 2.3z"/></svg>