<?xml version="1.0" encoding="utf-8"?>
<!-- Generator: Adobe Illustrator 19.1.0, SVG Export Plug-In . SVG Version: 6.00 Build 0)  -->
<!DOCTYPE svg PUBLIC "-//W3C//DTD SVG 1.1//EN" "http://www.w3.org/Graphics/SVG/1.1/DTD/svg11.dtd">
<svg version="1.1" id="Layer_1" xmlns="http://www.w3.org/2000/svg" xmlns:xlink="http://www.w3.org/1999/xlink" x="0px" y="0px"
	 width="792px" height="612px" viewBox="0 0 792 612" style="enable-background:new 0 0 792 612;" xml:space="preserve">
<style type="text/css">
	.st0{fill:#218F79;}
	.st1{fill:#66C1A6;}
	.st2{fill:#E8E883;}
	.st3{fill:#FFFFFF;}
	.st4{opacity:0.47;fill:#66C1A6;}
	.st5{opacity:0.31;fill:#66C1A6;}
	.st6{fill:#94B761;}
</style>
<g>
	<path class="st0" d="M98.8,40.4c19.8-2.6,34.9,1,38.6,2c2.9,0.7,16.4,4.3,31.6,14.5c17.6,11.8,27.1,25.5,29.6,29.3
		c4.1,6.2,11.2,18.3,14.8,35.2c1.4,6.5,4,21.4,0.8,39.8c-5.4,31.1-23.2,50.5-26.9,54.3c-4.4,4.6-22.9,23.2-53.8,29.7
		c-21.6,4.5-39.6,1.2-49.5-1.6c-23.6-6.5-38.5-19.4-43.7-24.2c-13.6-12.7-20.4-26-23-31.6c-2.5-5.4-11.6-26.3-8.6-54.3
		c0.7-6.3,3-22.8,13.3-41c11.2-19.9,25.5-30.8,28.9-33.2C54.3,56.6,72,43.9,98.8,40.4z"/>
	<path class="st1" d="M47,165.6V95.4c0,0,2-11.1,11.6-11.1s108.8,0,108.8,0s10.4-0.7,10.4,10.9s0,70.5,0,70.5H47z"/>
	<path class="st1" d="M191.6,189.2c0,0-152.9,0-157,0s-4.1-4.9-4.1-4.9L47,165.6L191.6,189.2z"/>
	<rect x="60.4" y="98.3" class="st0" width="104.9" height="61.1"/>
	<path class="st1" d="M177.8,165.6l16.7,17.8c0,0,2.2,5.7-2.9,5.7S47,165.6,47,165.6H177.8z"/>
	<rect x="53.9" y="168.5" class="st2" width="28.9" height="4.2"/>
	<rect x="88" y="168.5" class="st2" width="19.3" height="4.2"/>
	<rect x="60.4" y="175.3" class="st2" width="19.3" height="4.2"/>
	<rect x="82.8" y="175.3" class="st2" width="19.3" height="4.2"/>
	<rect x="105.3" y="175.3" class="st2" width="19.3" height="4.2"/>
	<rect x="127.7" y="175.3" class="st2" width="19.3" height="4.2"/>
	<rect x="149.9" y="175.3" class="st2" width="19.3" height="4.2"/>
	<rect x="110.8" y="168.5" class="st2" width="18.8" height="4.2"/>
	<rect x="132.1" y="168.5" class="st2" width="18.8" height="4.2"/>
	<rect x="153.3" y="168.5" class="st2" width="18.8" height="4.2"/>
	<rect x="80.1" y="181.7" class="st2" width="61.4" height="4.2"/>
	<path class="st1" d="M158.4,124.6c6.2,10.9,3,24.1-7.2,29.6c-10.1,5.5-23.3,1.2-29.5-9.7c-6.2-10.9-3-24.1,7.2-29.6
		C139,109.4,152.2,113.8,158.4,124.6z"/>
	<path class="st3" d="M154.6,126.8c5,8.8,2.5,19.5-5.5,23.9s-18.6,0.8-23.6-8c-5-8.8-2.5-19.5,5.5-23.9
		C139,114.4,149.6,118,154.6,126.8z"/>
	<path class="st2" d="M151.8,128.3c4,7,2,15.6-4.5,19.1c-6.5,3.5-15,0.7-19-6.3s-2-15.6,4.5-19.1
		C139.3,118.4,147.8,121.2,151.8,128.3z"/>
	<path class="st0" d="M146.8,130.5c2.5,4.3,1.2,9.6-2.8,11.8c-4,2.2-9.2,0.4-11.7-3.9c-2.5-4.3-1.2-9.6,2.8-11.8
		C139.1,124.4,144.4,126.1,146.8,130.5z"/>
	<path class="st4" d="M146.2,120.8c1.6,2.8,0.7,6.4-2.1,7.9c-2.8,1.5-6.4,0.4-8-2.4s-0.7-6.4,2.1-7.9S144.6,117.9,146.2,120.8z"/>
	<path class="st5" d="M140.1,141.1c1.1,1.9,0.6,4.2-1.1,5.1c-1.7,0.9-4,0.1-5-1.8c-1.1-1.9-0.6-4.2,1.1-5.1
		C136.7,138.4,139,139.2,140.1,141.1z"/>
	<path class="st6" d="M148.7,155.4l2.2,3.9l4.3-2.3l-2.2-3.8c0,0-0.4,0.4-1.8,1.1C149.8,155,148.7,155.4,148.7,155.4z"/>
	<path class="st0" d="M150.9,159.3c0,0-0.7,0.8-0.3,1.5c0.4,0.7,7.6,13.3,7.6,13.3s0.7,0.7,1.4,0.5c0.8-0.2,4.7-2.6,4.7-2.6
		s0.4-0.4,0-0.9c-0.3-0.6-7.7-13.6-7.7-13.6s-0.8-0.8-1.4-0.5C154.6,157.3,150.9,159.3,150.9,159.3z"/>
</g>
</svg>
