<?xml version="1.0" encoding="utf-8"?>
<!-- Generator: Adobe Illustrator 19.1.0, SVG Export Plug-In . SVG Version: 6.00 Build 0)  -->
<!DOCTYPE svg PUBLIC "-//W3C//DTD SVG 1.1//EN" "http://www.w3.org/Graphics/SVG/1.1/DTD/svg11.dtd">
<svg version="1.1" id="Layer_1" xmlns="http://www.w3.org/2000/svg" xmlns:xlink="http://www.w3.org/1999/xlink" x="0px" y="0px"
	 width="792px" height="612px" viewBox="0 0 792 612" style="enable-background:new 0 0 792 612;" xml:space="preserve">
<style type="text/css">
	.st0{fill:#218F79;}
	.st1{fill:#66C1A6;}
	.st2{fill:#E8E883;}
	.st3{fill:#FFFFFF;}
	.st4{opacity:0.47;fill:#66C1A6;enable-background:new    ;}
	.st5{opacity:0.31;fill:#66C1A6;enable-background:new    ;}
	.st6{fill:#94B761;}
</style>
<g>
	<path class="st0" d="M284,150c19.8-2.6,34.9,1,38.6,2c2.9,0.7,16.4,4.3,31.6,14.5c17.6,11.8,27.1,25.5,29.6,29.3
		c4.1,6.2,11.2,18.3,14.8,35.2c1.4,6.5,4,21.4,0.8,39.8c-5.4,31.1-23.2,50.5-26.9,54.3c-4.4,4.6-22.9,23.2-53.8,29.7
		c-21.6,4.5-39.6,1.2-49.5-1.6c-23.6-6.5-38.5-19.4-43.7-24.2c-13.6-12.7-20.4-26-23-31.6c-2.5-5.4-11.6-26.3-8.6-54.3
		c0.7-6.3,3-22.8,13.3-41c11.2-19.9,25.5-30.8,28.9-33.2C239.5,166.2,257.2,153.5,284,150L284,150z"/>
	<path class="st1" d="M232.2,275.2V205c0,0,2-11.1,11.6-11.1h108.8c0,0,10.4-0.7,10.4,10.9v70.5L232.2,275.2L232.2,275.2
		L232.2,275.2z M376.8,298.8h-157l-4.1-4.9l16.5-18.7L376.8,298.8z"/>
	<path class="st0" d="M245.6,207.9h104.9V269H245.6V207.9z"/>
	<path class="st1" d="M363,275.2l16.7,17.8c0,0,2.2,5.7-2.9,5.7s-144.6-23.5-144.6-23.5H363z"/>
	<path class="st2" d="M239.1,278.1H268v4.2h-28.9V278.1z M273.2,278.1h19.3v4.2h-19.3V278.1z M245.6,284.9h19.3v4.2h-19.3
		L245.6,284.9z M268,284.9h19.3v4.2H268V284.9z M290.5,284.9h19.3v4.2h-19.3V284.9z M312.9,284.9h19.3v4.2h-19.3V284.9z
		 M335.1,284.9h19.3v4.2h-19.3V284.9z M296,278.1h18.8v4.2H296V278.1z M317.3,278.1h18.8v4.2h-18.8V278.1z M338.5,278.1h18.8v4.2
		h-18.8V278.1z M265.3,291.3h61.4v4.2h-61.4V291.3z"/>
	<path class="st1" d="M343.6,234.2c6.2,10.9,3,24.1-7.2,29.6c-10.1,5.5-23.3,1.2-29.5-9.7c-6.2-10.9-3-24.1,7.2-29.6
		C324.2,219,337.4,223.4,343.6,234.2L343.6,234.2z"/>
	<path class="st3" d="M339.8,236.4c5,8.8,2.5,19.5-5.5,23.9s-18.6,0.8-23.6-8s-2.5-19.5,5.5-23.9S334.8,227.6,339.8,236.4z"/>
	<path class="st2" d="M337,237.9c4,7,2,15.6-4.5,19.1s-15,0.7-19-6.3s-2-15.6,4.5-19.1C324.5,228,333,230.8,337,237.9z"/>
	<path class="st0" d="M332,240.1c2.5,4.3,1.2,9.6-2.8,11.8s-9.2,0.4-11.7-3.9s-1.2-9.6,2.8-11.8S329.6,235.7,332,240.1z"/>
	<path class="st4" d="M331.4,230.4c1.6,2.8,0.7,6.4-2.1,7.9s-6.4,0.4-8-2.4c-1.6-2.8-0.7-6.4,2.1-7.9S329.8,227.5,331.4,230.4z"/>
	<path class="st5" d="M325.3,250.7c1.1,1.9,0.6,4.2-1.1,5.1s-4,0.1-5-1.8c-1.1-1.9-0.6-4.2,1.1-5.1
		C321.9,248,324.2,248.8,325.3,250.7z"/>
	<path class="st6" d="M333.9,265l2.2,3.9l4.3-2.3l-2.2-3.8c0,0-0.4,0.4-1.8,1.1S333.9,265,333.9,265L333.9,265z"/>
	<path class="st0" d="M336.1,268.9c0,0-0.7,0.8-0.3,1.5l7.6,13.3c0,0,0.7,0.7,1.4,0.5c0.8-0.2,4.7-2.6,4.7-2.6s0.4-0.4,0-0.9
		c-0.3-0.6-7.7-13.6-7.7-13.6s-0.8-0.8-1.4-0.5S336.1,268.9,336.1,268.9L336.1,268.9z"/>
</g>
</svg>
