<?xml version="1.0" encoding="utf-8"?>
<!-- Generator: Adobe Illustrator 19.1.0, SVG Export Plug-In . SVG Version: 6.00 Build 0)  -->
<!DOCTYPE svg PUBLIC "-//W3C//DTD SVG 1.1//EN" "http://www.w3.org/Graphics/SVG/1.1/DTD/svg11.dtd">
<svg version="1.1" id="Layer_1" xmlns="http://www.w3.org/2000/svg" xmlns:xlink="http://www.w3.org/1999/xlink" x="0px" y="0px"
	 width="792px" height="612px" viewBox="90 91 792 612" style="enable-background:new 90 91 792 612;" xml:space="preserve">
<style type="text/css">
	.st0{fill:#218F79;}
	.st1{fill:#66C1A6;}
	.st2{fill:#E8E883;}
	.st3{fill:#FFFFFF;}
	.st4{opacity:0.47;fill:#66C1A6;enable-background:new    ;}
	.st5{opacity:0.31;fill:#66C1A6;enable-background:new    ;}
	.st6{fill:#94B761;}
</style>
<g>
	<path class="st0" d="M177,95.7c17.1-2.2,30.2,0.9,33.4,1.7c2.5,0.6,14.2,3.7,27.3,12.3c15.2,10,23.4,21.7,25.6,24.9
		c3.5,5.3,9.7,15.6,12.8,29.9c1.2,5.5,3.5,18.2,0.7,33.8c-4.7,26.4-20.1,42.9-23.3,46.2c-3.8,3.9-19.8,19.7-46.5,25.3
		c-18.7,3.8-34.2,1-42.8-1.4c-20.4-5.5-33.3-16.5-37.8-20.6c-11.8-10.8-17.6-22.1-19.9-26.9c-2.2-4.6-10-22.4-7.4-46.2
		c0.6-5.4,2.6-19.4,11.5-34.9c9.7-16.9,22.1-26.2,25-28.2C138.5,109.5,153.8,98.7,177,95.7z"/>
	<path class="st1" d="M132.2,202.2v-59.7c0,0,1.7-9.4,10-9.4s94.1,0,94.1,0s9-0.6,9,9.3s0,60,0,60L132.2,202.2L132.2,202.2z"/>
	<path class="st1" d="M257.2,222.2c0,0-132.2,0-135.8,0c-3.5,0-3.5-4.2-3.5-4.2l14.3-15.9L257.2,222.2z"/>
	<rect x="143.8" y="144.9" class="st2" width="90.7" height="52"/>
	<path class="st1" d="M245.3,202.2l14.4,15.1c0,0,1.9,4.8-2.5,4.8c-4.4,0-125.1-20-125.1-20H245.3z"/>
	<rect x="138.1" y="204.6" class="st2" width="25" height="3.6"/>
	<rect x="167.6" y="204.6" class="st2" width="16.7" height="3.6"/>
	<rect x="143.8" y="210.4" class="st2" width="16.7" height="3.6"/>
	<rect x="163.1" y="210.4" class="st2" width="16.7" height="3.6"/>
	<rect x="182.6" y="210.4" class="st2" width="16.7" height="3.6"/>
	<rect x="202" y="210.4" class="st2" width="16.7" height="3.6"/>
	<rect x="221.2" y="210.4" class="st2" width="16.7" height="3.6"/>
	<rect x="187.3" y="204.6" class="st2" width="16.3" height="3.6"/>
	<rect x="205.8" y="204.6" class="st2" width="16.3" height="3.6"/>
	<rect x="224.1" y="204.6" class="st2" width="16.3" height="3.6"/>
	<rect x="160.8" y="215.9" class="st2" width="53.1" height="3.6"/>
	<path class="st1" d="M228.5,167.3c5.4,9.3,2.6,20.5-6.2,25.2c-8.7,4.7-20.2,1-25.5-8.2c-5.4-9.3-2.6-20.5,6.2-25.2
		C211.7,154.4,223.1,158.1,228.5,167.3z"/>
	<path class="st3" d="M225.2,169.2c4.3,7.5,2.2,16.6-4.8,20.3s-16.1,0.7-20.4-6.8c-4.3-7.5-2.2-16.6,4.8-20.3
		C211.7,158.6,220.9,161.7,225.2,169.2z"/>
	<path class="st2" d="M222.8,170.5c3.5,6,1.7,13.3-3.9,16.2c-5.6,3-13,0.6-16.4-5.4s-1.7-13.3,3.9-16.2
		C212,162,219.3,164.4,222.8,170.5z"/>
	<path class="st0" d="M218.5,172.3c2.2,3.7,1,8.2-2.4,10s-8,0.3-10.1-3.3c-2.2-3.7-1-8.2,2.4-10
		C211.8,167.1,216.4,168.6,218.5,172.3z"/>
	<path class="st4" d="M218,164.1c1.4,2.4,0.6,5.4-1.8,6.7c-2.4,1.3-5.5,0.3-6.9-2c-1.4-2.4-0.6-5.4,1.8-6.7S216.6,161.6,218,164.1z"
		/>
	<path class="st5" d="M212.7,181.3c1,1.6,0.5,3.6-1,4.3c-1.5,0.8-3.5,0.1-4.3-1.5c-1-1.6-0.5-3.6,1-4.3
		C209.7,179,211.7,179.7,212.7,181.3z"/>
	<path class="st6" d="M220.1,193.5l1.9,3.3l3.7-2l-1.9-3.2c0,0-0.3,0.3-1.6,0.9S220.1,193.5,220.1,193.5z"/>
	<path class="st0" d="M222,196.8c0,0-0.6,0.7-0.3,1.3s6.6,11.3,6.6,11.3s0.6,0.6,1.2,0.4c0.7-0.2,4.1-2.2,4.1-2.2s0.3-0.3,0-0.8
		c-0.3-0.5-6.7-11.6-6.7-11.6s-0.7-0.7-1.2-0.4C225.2,195.1,222,196.8,222,196.8z"/>
</g>
</svg>
