<?xml version="1.0" encoding="utf-8"?>
<!-- Generator: Adobe Illustrator 19.1.0, SVG Export Plug-In . SVG Version: 6.00 Build 0)  -->
<!DOCTYPE svg PUBLIC "-//W3C//DTD SVG 1.1//EN" "http://www.w3.org/Graphics/SVG/1.1/DTD/svg11.dtd">
<svg version="1.1" id="Layer_1" xmlns="http://www.w3.org/2000/svg" xmlns:xlink="http://www.w3.org/1999/xlink" x="0px" y="0px"
	 width="792px" height="612px" viewBox="90 91 792 612" style="enable-background:new 90 91 792 612;" xml:space="preserve">
<style type="text/css">
	.st0{fill:#218F79;}
	.st1{fill:#66C1A6;}
	.st2{fill:#E8E883;}
	.st3{fill:#FFFFFF;}
	.st4{opacity:0.47;fill:#66C1A6;enable-background:new    ;}
	.st5{opacity:0.31;fill:#66C1A6;enable-background:new    ;}
	.st6{fill:#94B761;}
</style>
<g>
	<path class="st0" d="M226,104.8c19.8-2.6,34.9,1,38.6,2c2.9,0.7,16.4,4.3,31.6,14.5c17.6,11.8,27.1,25.5,29.6,29.3
		c4.1,6.2,11.2,18.3,14.8,35.2c1.4,6.5,4,21.4,0.8,39.8c-5.4,31.1-23.2,50.5-26.9,54.3c-4.4,4.6-22.9,23.2-53.8,29.7
		c-21.6,4.5-39.6,1.2-49.5-1.6c-23.6-6.5-38.5-19.4-43.7-24.2c-13.6-12.7-20.4-26-23-31.6c-2.5-5.4-11.6-26.3-8.6-54.3
		c0.7-6.3,3-22.8,13.3-41c11.2-19.9,25.5-30.8,28.9-33.2C181.5,121,199.2,108.3,226,104.8z"/>
	<path class="st1" d="M174.2,230v-70.2c0,0,2-11.1,11.6-11.1c9.6,0,108.8,0,108.8,0S305,148,305,159.6c0,11.6,0,70.5,0,70.5H174.2
		V230z"/>
	<path class="st1" d="M318.8,253.6c0,0-152.9,0-157,0s-4.1-4.9-4.1-4.9l16.5-18.7L318.8,253.6z"/>
	<rect x="187.6" y="162.7" class="st0" width="104.9" height="61.1"/>
	<path class="st1" d="M305,230l16.7,17.8c0,0,2.2,5.7-2.9,5.7c-5.1,0-144.6-23.5-144.6-23.5H305z"/>
	<rect x="181.1" y="232.9" class="st2" width="28.9" height="4.2"/>
	<rect x="215.2" y="232.9" class="st2" width="19.3" height="4.2"/>
	<rect x="187.6" y="239.7" class="st2" width="19.3" height="4.2"/>
	<rect x="210" y="239.7" class="st2" width="19.3" height="4.2"/>
	<rect x="232.5" y="239.7" class="st2" width="19.3" height="4.2"/>
	<rect x="254.9" y="239.7" class="st2" width="19.3" height="4.2"/>
	<rect x="277.1" y="239.7" class="st2" width="19.3" height="4.2"/>
	<rect x="238" y="232.9" class="st2" width="18.8" height="4.2"/>
	<rect x="259.3" y="232.9" class="st2" width="18.8" height="4.2"/>
	<rect x="280.5" y="232.9" class="st2" width="18.8" height="4.2"/>
	<rect x="207.3" y="246.1" class="st2" width="61.4" height="4.2"/>
	<path class="st1" d="M285.6,189c6.2,10.9,3,24.1-7.2,29.6c-10.1,5.5-23.3,1.2-29.5-9.7s-3-24.1,7.2-29.6
		C266.2,173.8,279.4,178.2,285.6,189z"/>
	<path class="st3" d="M281.8,191.2c5,8.8,2.5,19.5-5.5,23.9s-18.6,0.8-23.6-8c-5-8.8-2.5-19.5,5.5-23.9
		C266.2,178.8,276.8,182.4,281.8,191.2z"/>
	<path class="st2" d="M279,192.7c4,7,2,15.6-4.5,19.1s-15,0.7-19-6.3c-4-7-2-15.6,4.5-19.1C266.5,182.8,275,185.6,279,192.7z"/>
	<path class="st0" d="M274,194.9c2.5,4.3,1.2,9.6-2.8,11.8s-9.2,0.4-11.7-3.9c-2.5-4.3-1.2-9.6,2.8-11.8
		C266.3,188.8,271.6,190.5,274,194.9z"/>
	<path class="st4" d="M273.4,185.2c1.6,2.8,0.7,6.4-2.1,7.9c-2.8,1.5-6.4,0.4-8-2.4c-1.6-2.8-0.7-6.4,2.1-7.9
		C268.2,181.3,271.8,182.3,273.4,185.2z"/>
	<path class="st5" d="M267.3,205.5c1.1,1.9,0.6,4.2-1.1,5.1c-1.7,0.9-4,0.1-5-1.8c-1.1-1.9-0.6-4.2,1.1-5.1
		C263.9,202.8,266.2,203.6,267.3,205.5z"/>
	<path class="st6" d="M275.9,219.8l2.2,3.9l4.3-2.3l-2.2-3.8c0,0-0.4,0.4-1.8,1.1S275.9,219.8,275.9,219.8z"/>
	<path class="st0" d="M278.1,223.7c0,0-0.7,0.8-0.3,1.5s7.6,13.3,7.6,13.3s0.7,0.7,1.4,0.5c0.8-0.2,4.7-2.6,4.7-2.6s0.4-0.4,0-0.9
		c-0.3-0.6-7.7-13.6-7.7-13.6s-0.8-0.8-1.4-0.5C281.8,221.7,278.1,223.7,278.1,223.7z"/>
</g>
</svg>
