<svg xmlns="http://www.w3.org/2000/svg" width="792" height="612" viewBox="90 91 792 612" enable-background="new 90 91 792 612"><style type="text/css">.st0{fill:#E8E883;} .st1{fill:#218F79;}</style><path class="st0" d="M264.4 233.3c4.7-5.8 27.1-33.8 68.3-60.1 16.3-10.4 52-32.4 104.7-43.2 88.5-18 160.4 9 179.5 16.9 17.7 6.8 55.6 23.7 92.1 57.2 34.7 31.7 51.3 63.3 57.1 75.2 7.9 16.2 26.4 59 22.4 115.8-1.8 26.3-10.5 77.3-50.9 128.4-11.6 14.4-43 51.1-100 78.1-58.1 27.7-110.9 30.2-127.1 30.6-15.9.4-75.8.7-141.6-29.1-75.1-34.2-110.5-86.7-119.2-100.4-9-14-36.5-60.1-36.5-122.7 0-10.4.7-43.5 15.9-83.8 13.6-34.8 31.7-58.2 35.3-62.9z"/><path class="st1" d="M605.3 548.8l-18.8-53.6c-2.9 1.1-7.6 2.5-13 4-8.3 1.8-17 4-27.1 2.2-2.5-.4-7.9-1.4-13-4.3-14.1-7.9-16.3-23.7-16.3-27l-.4-107.9h75.5v-56.8l-73.7 1.1v-91.5h-66.8c-.4 6.8-1.8 15.5-4.7 25.9-2.5 7.6-6.9 19.1-15.5 32-5.8 8.6-12.3 18-24.6 26.6-12.3 8.6-24.6 12.9-32.5 15.1v49.6l45.1.4c-1.1 35.3-1.4 71.6-.4 108.3 0 1.4-.7 7.2.4 14.4.7 5 2.2 9.4 4 15.1 4.7 12.9 6.9 19.8 10.5 25.2 1.4 2.2 8.7 13.3 23.8 22.7 13.7 8.3 26.4 10.8 41.2 13.3 4.7.7 24.6 4 50.2 1.8 22.4-2.2 37.6-7.2 40.8-8.3 4.7-1.8 8.3-3.2 11.2-4.3l4.1-4z"/></svg>