<?xml version="1.0" encoding="utf-8"?>
<!-- Generator: Adobe Illustrator 19.1.0, SVG Export Plug-In . SVG Version: 6.00 Build 0)  -->
<!DOCTYPE svg PUBLIC "-//W3C//DTD SVG 1.1//EN" "http://www.w3.org/Graphics/SVG/1.1/DTD/svg11.dtd">
<svg version="1.1" id="Layer_1" xmlns="http://www.w3.org/2000/svg" xmlns:xlink="http://www.w3.org/1999/xlink" x="0px" y="0px"
	 width="792px" height="612px" viewBox="0 0 792 612" style="enable-background:new 0 0 792 612;" xml:space="preserve">
<style type="text/css">
	.st0{fill:#218F79;}
	.st1{fill:#66C1A6;}
</style>
<path class="st0" d="M343.1,48.1c1.3-1.6,7.5-9.4,18.9-16.7c4.5-2.9,14.4-9,29-12c24.5-5,44.4,2.5,49.7,4.7
	c4.9,1.9,15.4,6.6,25.5,15.9c9.6,8.8,14.2,17.6,15.8,20.9c2.2,4.5,7.3,16.4,6.2,32.2c-0.5,7.3-2.9,21.5-14.1,35.7
	c-3.2,4-11.9,14.2-27.7,21.7c-16.1,7.7-30.7,8.4-35.2,8.5c-4.4,0.1-21,0.2-39.2-8.1c-20.8-9.5-30.6-24.1-33-27.9
	c-2.5-3.9-10.1-16.7-10.1-34.1c0-2.9,0.2-12.1,4.4-23.3C337.1,55.9,342.1,49.4,343.1,48.1z"/>
<path class="st1" d="M437.5,135.8l-5.2-14.9c-0.8,0.3-2.1,0.7-3.6,1.1c-2.3,0.5-4.7,1.1-7.5,0.6c-0.7-0.1-2.2-0.4-3.6-1.2
	c-3.9-2.2-4.5-6.6-4.5-7.5l-0.1-30h20.9V68.1l-20.4,0.3V43H395c-0.1,1.9-0.5,4.3-1.3,7.2c-0.7,2.1-1.9,5.3-4.3,8.9
	c-1.6,2.4-3.4,5-6.8,7.4s-6.8,3.6-9,4.2v13.8l12.5,0.1c-0.3,9.8-0.4,19.9-0.1,30.1c0,0.4-0.2,2,0.1,4c0.2,1.4,0.6,2.6,1.1,4.2
	c1.3,3.6,1.9,5.5,2.9,7c0.4,0.6,2.4,3.7,6.6,6.3c3.8,2.3,7.3,3,11.4,3.7c1.3,0.2,6.8,1.1,13.9,0.5c6.2-0.6,10.4-2,11.3-2.3
	c1.3-0.5,2.3-0.9,3.1-1.2L437.5,135.8z"/>
</svg>
