<?xml version="1.0" encoding="utf-8"?>
<!-- Generator: Adobe Illustrator 19.1.0, SVG Export Plug-In . SVG Version: 6.00 Build 0)  -->
<!DOCTYPE svg PUBLIC "-//W3C//DTD SVG 1.1//EN" "http://www.w3.org/Graphics/SVG/1.1/DTD/svg11.dtd">
<svg version="1.1" id="Layer_1" xmlns="http://www.w3.org/2000/svg" xmlns:xlink="http://www.w3.org/1999/xlink" x="0px" y="0px"
	 width="792px" height="612px" viewBox="90 91 792 612" style="enable-background:new 90 91 792 612;" xml:space="preserve">
<style type="text/css">
	.st0{fill:#E8E883;}
	.st1{fill:#218F79;}
</style>
<g>
	<path class="st0" d="M264.4,233.3c4.7-5.8,27.1-33.8,68.3-60.1c16.3-10.4,52-32.4,104.7-43.2c88.5-18,160.4,9,179.5,16.9
		c17.7,6.8,55.6,23.7,92.1,57.2c34.7,31.7,51.3,63.3,57.1,75.2c7.9,16.2,26.4,59,22.4,115.8c-1.8,26.3-10.5,77.3-50.9,128.4
		c-11.6,14.4-43,51.1-100,78.1c-58.1,27.7-110.9,30.2-127.1,30.6c-15.9,0.4-75.8,0.7-141.6-29.1c-75.1-34.2-110.5-86.7-119.2-100.4
		c-9-14-36.5-60.1-36.5-122.7c0-10.4,0.7-43.5,15.9-83.8C242.7,261.4,260.8,238,264.4,233.3L264.4,233.3z"/>
	<path class="st1" d="M605.3,548.8l-18.8-53.6c-2.9,1.1-7.6,2.5-13,4c-8.3,1.8-17,4-27.1,2.2c-2.5-0.4-7.9-1.4-13-4.3
		c-14.1-7.9-16.3-23.7-16.3-27l-0.4-107.9h75.5v-56.8l-73.7,1.1V215h-66.8c-0.4,6.8-1.8,15.5-4.7,25.9c-2.5,7.6-6.9,19.1-15.5,32
		c-5.8,8.6-12.3,18-24.6,26.6c-12.3,8.6-24.6,12.9-32.5,15.1v49.6l45.1,0.4c-1.1,35.3-1.4,71.6-0.4,108.3c0,1.4-0.7,7.2,0.4,14.4
		c0.7,5,2.2,9.4,4,15.1c4.7,12.9,6.9,19.8,10.5,25.2c1.4,2.2,8.7,13.3,23.8,22.7c13.7,8.3,26.4,10.8,41.2,13.3
		c4.7,0.7,24.6,4,50.2,1.8c22.4-2.2,37.6-7.2,40.8-8.3c4.7-1.8,8.3-3.2,11.2-4.3L605.3,548.8L605.3,548.8z"/>
</g>
</svg>
